<svg width="501" height="509" viewBox="0 0 501 509" fill="none" xmlns="http://www.w3.org/2000/svg">
<g clip-path="url(#clip0)">
<g opacity="0.4">
<path opacity="0.4" d="M390.333 461.624C368.525 461.624 350.849 472.235 350.849 485.299C350.849 498.389 368.525 508.973 390.333 508.973C412.141 508.973 429.817 498.362 429.817 485.299C429.817 472.235 412.141 461.624 390.333 461.624Z" fill="#4661E0"/>
</g>
<g opacity="0.4">
<path opacity="0.4" d="M112.373 377.884C109.254 376.498 106.374 375.085 103.468 373.912C104.748 373.112 105.815 372.286 106.508 371.486C115.039 361.701 98.6163 352.05 92.3511 348.131C76.7549 338.4 63.3181 345.545 47.6418 353.597C40.5235 357.249 30.7659 362.714 23.5143 364.421C3.7057 369.06 6.63833 378.951 24.1275 392.227C38.6573 403.265 46.3888 401.212 56.1731 395.24C57.6928 398.839 61.8784 402.892 68.7301 408.117C87.179 422.14 94.6439 415.075 109.334 405.611C126.45 394.6 123.757 382.95 112.373 377.884Z" fill="#4661E0"/>
</g>
<g opacity="0.4">
<path opacity="0.4" d="M114.133 329.469C94.3242 334.108 96.0038 348.504 106.641 365.94C118.718 385.749 145.005 369.326 159.695 359.862C166.68 355.356 198.513 340.773 204.404 334.028C212.936 324.244 202.725 311.607 179.504 308.301C161.295 305.715 156.363 311.66 140.686 319.738C133.541 323.364 121.384 327.763 114.133 329.469Z" fill="#4661E0"/>
</g>
<g opacity="0.4">
<path opacity="0.4" d="M242.902 319.311C223.093 323.95 224.773 338.347 235.41 355.783C247.487 375.591 273.774 359.169 288.464 349.704C295.449 345.199 327.282 330.615 333.173 323.87C341.705 314.086 331.494 301.449 308.273 298.143C290.064 295.557 285.132 301.502 269.455 309.58C262.31 313.233 250.127 317.632 242.902 319.311Z" fill="#4661E0"/>
</g>
<g opacity="0.4">
<path opacity="0.4" d="M202.405 483.326C223.573 492.79 235.037 468.29 251.407 462.184C273.641 453.893 293.183 455.759 299.049 448.987C307.58 439.203 281.879 421.687 269.402 422.22C251.033 423.02 226.133 435.737 210.456 443.815C207.55 445.308 203.525 451.254 200.672 458.132C196.566 468.05 194.86 479.967 202.405 483.326Z" fill="#4661E0"/>
</g>
<path d="M296.996 288.839C296.996 288.839 296.542 292.544 295.396 296.437C294.223 300.329 295.663 305.741 295.663 305.741C295.663 305.741 296.516 308.141 300.088 308.834C303.447 309.5 306.14 308.701 306.14 308.701C306.14 308.701 309.446 312.673 313.738 315.739C318.057 318.778 327.548 321.151 330.134 320.751C334.293 320.111 336.533 316.859 336.213 314.779C335.893 312.673 330.988 306.888 326.962 304.355C324.349 302.729 318.377 297.183 316.591 295.264C313.632 292.091 311.446 288.572 311.446 288.572L296.996 288.839Z" fill="#301121"/>
<path d="M306.807 127.357C304.114 120.105 304.221 110.347 301.315 105.282C301.608 97.1504 299.502 81.1808 295.023 68.4638C296.782 63.2117 294.17 54.5204 290.224 49.3217C286.278 44.1229 278.733 40.2571 278.733 40.2571L264.843 49.3217C264.843 49.3217 278.147 109.281 278.334 109.841C278.733 110.96 289.931 153.084 293.13 155.67C296.329 158.256 295.423 158.389 302.594 155.643C309.793 152.897 312.805 143.459 306.807 127.357Z" fill="#DCE4FF"/>
<path d="M295.103 149.618C295.13 155.697 292.41 158.256 296.009 160.415C299.608 162.548 304.647 163.935 309.953 158.896C312.059 156.923 310.246 147.698 309.366 144.926C305.154 144.073 300.462 144.552 295.103 149.618Z" fill="white"/>
<path d="M310.272 154.204C310.272 154.204 313.418 160.229 314.778 164.415C316.138 168.6 310.832 175.319 303.741 174.892C296.649 174.466 295.183 164.281 296.196 162.335C297.209 160.415 302.381 151.751 310.272 154.204Z" fill="#FFC9B6"/>
<path d="M291.29 123.251C291.29 123.251 303.367 154.07 305.234 166.521C307.1 178.998 310.859 197.873 313.125 213.576C315.364 229.279 315.338 244.582 314.298 259.939C313.871 266.017 311.659 281.933 312.832 290.571C311.499 296.197 298.329 296.89 296.782 290.358C295.822 286.306 285.692 250.421 284.678 239.144C283.665 227.866 286.331 219.761 286.331 219.761C286.331 219.761 269.882 184.543 264.123 170.68C258.365 156.816 262.284 139.647 262.284 139.647L291.29 123.251Z" fill="#3A3A93"/>
<path d="M234.984 320.458C234.984 320.458 232.744 328.722 233.038 333.521C233.304 338.32 234.451 339.44 235.917 341.066C237.357 342.692 239.063 341.973 239.063 341.973C239.063 341.973 239.729 351.837 244.422 355.836C249.114 359.835 257.592 360.208 261.484 358.769C265.377 357.329 262.817 350.237 259.005 343.306C255.192 336.374 250.314 328.909 249.114 322.644C239.756 321.364 234.984 320.458 234.984 320.458Z" fill="#301121"/>
<path d="M248.021 135.995C248.021 135.995 243.222 133.115 238.53 147.832C235.197 158.176 234.611 194.221 234.611 194.221C234.611 194.221 233.758 218.642 235.331 227.093C236.903 235.544 236.77 237.251 236.77 237.251C236.77 237.251 229.998 257.486 231.038 281.454C232.078 305.395 234.024 322.564 234.024 322.564C234.024 322.564 235.357 327.096 241.516 327.709C247.114 328.269 251.22 324.403 251.22 324.403C251.22 324.403 261.484 273.695 265.297 262.151C269.109 250.608 270.495 237.277 270.495 237.277L278.28 180.357C278.28 180.357 293.663 170.306 285.772 144.979C280.84 129.116 248.021 135.995 248.021 135.995Z" fill="#4646A5"/>
<path d="M228.079 71.2632C235.704 56.0934 258.632 45.1894 275.108 47.5888C282.999 53.8806 286.651 58.093 289.504 65.6112C292.09 72.4363 293.183 80.4877 292.357 87.606C289.877 109.014 296.542 134.395 298.409 142.553C289.664 151.698 278.76 159.642 265.91 157.669C253.326 155.723 244.182 154.39 237.783 150.978C240.103 132.902 235.064 117.519 229.065 101.363C225.839 92.6982 223.733 79.9012 228.079 71.2632Z" fill="#FCB435"/>
<path d="M270.335 38.151C270.335 38.151 268.762 48.5752 272.575 52.201C276.387 55.8001 276.414 63.2384 268.762 65.7445C259.485 68.7837 252.926 62.092 247.141 57.4797C249.647 52.1743 250.873 52.2276 250.873 37.3511C250.873 25.2473 270.335 38.151 270.335 38.151Z" fill="#F9BBA7"/>
<path d="M250.527 47.2421C250.527 47.2421 252.313 53.5607 257.112 57.1598C262.897 61.5054 273.774 62.2253 273.774 65.2112C270.602 65.2112 269.989 65.3979 269.989 67.664C269.989 71.9297 268.736 72.9161 268.736 72.9161C268.736 72.9161 260.871 70.6766 255.219 68.3305C248.127 65.3712 244.901 55.5602 244.901 55.5602C244.901 55.5602 246.314 46.8422 250.527 47.2421Z" fill="white"/>
<path d="M273.801 47.562C273.801 47.562 278.387 52.5475 280.36 54.867C282.333 57.1598 281.186 61.3988 282.173 63.3183C283.159 65.2112 283.586 66.5176 283.586 66.5176C283.586 66.5176 279.48 65.6911 278.68 63.3183C277.88 60.9456 273.775 65.2112 273.775 65.2112L270.869 62.8384C270.869 62.8384 275.241 60.0391 273.775 57.0531C272.308 54.0672 269.829 50.1214 269.829 50.1214L273.801 47.562Z" fill="white"/>
<path d="M253.513 12.4237C259.271 6.0519 274.414 3.43919 279.853 12.7703C283.932 19.782 284.119 32.2857 282.999 38.0177C280.68 50.0682 270.789 57.2398 259.378 47.9887C248.527 39.1641 243.595 23.4078 253.513 12.4237Z" fill="#FFC9B6"/>
<path d="M241.036 20.3951C241.969 16.3161 247.301 10.9307 252.206 11.9705C251.3 7.54484 253.353 2.21277 258.125 0.799765C268.043 -2.15954 277.107 3.94569 286.678 6.10518C289.397 6.71837 290.091 8.21135 285.425 11.064C288.011 11.2773 290.411 12.717 290.064 15.6229C289.824 17.6491 288.438 18.6356 286.705 19.0888C289.371 22.9279 285.558 26.1538 281.959 27.5934C275.907 29.9929 267.696 29.9129 262.284 26.0205C261.031 31.6192 256.045 38.7908 250.9 40.2571C245.728 36.5247 239.676 26.2604 241.036 20.3951Z" fill="#301121"/>
<path d="M260.951 35.7782C260.951 35.7782 256.179 28.8998 253.22 32.7123C250.26 36.5514 254.019 40.2571 254.019 40.2571L260.951 35.7782Z" fill="#FFC9B6"/>
<path d="M247.061 92.1649C247.834 67.2375 235.117 60.8123 235.117 60.8123C235.117 60.8123 222.4 61.9321 217.308 86.9395C214.775 99.3366 215.069 125.144 214.829 131.489C214.242 146.899 218.614 171.16 222.267 176.918C225.919 182.677 237.09 181.904 239.516 174.679C240.769 170.946 243.408 148.898 240.849 127.197C241.649 115.653 246.901 97.1771 247.061 92.1649Z" fill="#DCE4FF"/>
<path d="M221.68 175.799C221.707 181.877 224.4 186.169 227.999 188.302C231.598 190.435 236.743 190.248 238.476 183.157C240.609 174.492 239.063 171.586 238.183 171.426C233.971 170.546 227.039 170.706 221.68 175.799Z" fill="white"/>
<path d="M238.476 179.744C238.476 179.744 228.292 179.744 224.533 185.263C222.613 191.501 225.413 195.047 226.346 196.78C229.065 201.766 232.664 200.993 236.237 199.686C243.542 197.02 242.502 195.927 241.516 191.821C244.715 189.955 238.476 179.744 238.476 179.744Z" fill="#FFC9B6"/>
<path d="M283.319 35.9115C283.319 35.9115 281.106 40.7904 271.508 40.0439C266.55 39.6706 259.911 31.3526 257.672 32.3923C258.978 34.2052 263.537 37.7244 267.563 40.817C268.069 42.0701 264.843 49.3217 264.843 49.3217C264.843 49.3217 255.912 44.0962 252.766 38.4709C252.02 43.563 266.096 56.0134 273.988 53.9339C285.105 51.0013 283.319 35.9115 283.319 35.9115Z" fill="white"/>
<path d="M457.384 325.283C456.264 324.27 455.731 316.752 455.464 309.287C456.851 298.196 453.385 279.401 453.385 267.937C453.385 261.138 454.451 245.782 455.891 234.985C457.064 226.08 458.743 218.242 459.57 209.284C462.343 197.287 463.036 184.916 461.703 172.413C451.865 175.825 440.641 177.238 429.924 177.052C428.777 186.169 428.831 195.314 430.59 204.405C431.63 209.844 433.39 214.963 435.309 220.161C436.695 223.947 438.162 227.6 438.322 231.679C438.535 236.291 434.243 243.676 433.39 248.021C430.804 261.218 436.296 269.296 440.135 286.519C441.681 293.424 441.974 298.463 442.134 301.049C440.668 302.729 440.108 303.635 439.495 304.781C437.149 309.207 440.854 313.046 442.747 316.592C444.667 320.138 443.547 330.455 445.867 332.108C448.159 333.761 455.837 338.693 461.01 336.347C464.795 334.588 460.503 328.163 457.384 325.283Z" fill="#FFB9A4"/>
<path d="M473.727 109.627C469.834 103.256 458.903 87.686 454.345 77.875C448.719 65.7712 434.643 73.1028 434.643 73.1028L444.827 100.75C444.827 100.75 456.664 112.32 463.622 119.972C466.048 115.839 471.647 113.893 473.727 109.627Z" fill="#FFC9B6"/>
<path d="M438.668 311.26C440.908 318.138 443.761 329.442 444.081 332.642C444.4 335.841 449.733 340.133 458.824 339.733C467.915 339.333 464.609 334.988 462.503 331.629C461.516 330.056 460.583 328.856 459.703 327.549C459.703 327.549 458.264 330.269 454.478 330.695C450.692 331.122 449.093 330.589 447.12 326.99C445.147 323.39 442.214 312.593 441.015 309.527C439.842 306.461 442.134 300.996 442.134 300.996C439.682 303.982 436.936 305.928 438.668 311.26Z" fill="#D8322A"/>
<path d="M438.349 310.007V325.95C438.349 326.243 438.882 326.483 439.522 326.483C440.161 326.483 440.695 326.243 440.695 325.95V313.713L438.349 310.007Z" fill="#D8322A"/>
<path d="M427.418 336.907C426.405 335.761 426.671 328.269 427.178 320.804C429.71 309.927 428.244 290.865 429.47 279.454C430.19 272.682 432.883 257.539 435.442 246.955C437.548 238.211 440.028 230.612 441.814 221.788C445.813 210.137 447.813 197.927 447.813 185.343C437.655 187.689 426.351 187.929 415.74 186.596C413.634 195.527 412.728 204.645 413.528 213.87C414.007 219.388 415.207 224.667 416.567 230.026C417.553 233.945 418.62 237.731 418.353 241.81C418.06 246.395 414.061 254.447 412.834 258.739C408.515 273.802 412.355 279.028 414.381 296.543C415.181 303.582 414.941 308.621 414.861 311.18C413.234 312.673 412.568 313.553 411.848 314.593C409.049 318.752 412.328 322.964 413.848 326.696C415.367 330.429 413.208 340.56 415.314 342.453C417.42 344.319 424.538 350.051 429.924 348.238C433.816 346.932 430.244 340.08 427.418 336.907Z" fill="#FFC9B6"/>
<path d="M460.823 108.614C460.823 108.614 469.888 103.709 473.7 109.627C477.539 115.546 458.504 136.981 458.504 136.981C458.504 136.981 463.596 139.78 463.169 145.859C462.743 151.911 462.743 151.911 462.743 151.911C462.743 151.911 472.847 152.604 467.168 155.67C461.516 158.709 452.692 153.217 452.692 153.217L449.786 138.181C449.813 138.154 453.412 114.293 460.823 108.614Z" fill="#FFC9B6"/>
<path d="M410.302 320.991C411.822 328.056 413.448 339.6 413.421 342.826C413.395 346.052 418.247 350.851 427.338 351.41C436.429 351.97 433.576 347.278 431.843 343.732C431.044 342.079 430.217 340.773 429.471 339.387C429.471 339.387 427.738 341.919 423.952 341.973C420.14 341.999 418.62 341.306 417.02 337.52C415.447 333.735 413.661 322.697 412.781 319.525C411.928 316.352 414.781 311.18 414.781 311.18C412.061 313.873 409.129 315.499 410.302 320.991Z" fill="#D8322A"/>
<path d="M410.089 319.711L408.409 335.548C408.382 335.841 408.889 336.134 409.529 336.187C410.169 336.267 410.729 336.081 410.755 335.787L412.035 323.604L410.089 319.711Z" fill="#D8322A"/>
<path d="M459.89 150.711C456.344 143.886 451.812 139.3 451.892 134.315C451.998 127.143 452.212 118.399 450.345 111.654C452.318 108.961 458.85 105.682 455.624 96.7238C453.838 91.765 449.759 87.2861 448.373 85.3932C446.186 82.4072 442.294 77.3951 438.402 74.7024C434.536 72.0363 433.07 73.636 429.204 75.3156C428.831 75.4755 415.234 79.8478 405.823 86.2996C404.063 87.526 400.677 89.6855 399.531 91.0452C396.518 94.5644 397.318 97.577 397.318 101.016C397.318 101.256 407.982 120.505 413.208 132.502C415.074 136.794 417.447 139.274 414.514 144.606C410.728 151.484 407.422 154.204 404.037 167.987C396.252 199.793 414.247 243.383 414.247 243.383C414.247 243.383 421.819 250.261 434.323 249.461C451.012 248.421 457.81 240.877 457.81 240.877C457.81 240.877 464.075 211.283 464.315 189.182C464.502 174.599 464.342 159.322 459.89 150.711Z" fill="#EA4639"/>
<path d="M442.294 72.7029C442.774 70.0369 442.081 67.1575 440.375 64.9447C438.162 62.0654 433.363 59.6126 429.924 61.6922C429.87 61.7188 429.87 61.7721 429.817 61.7988C427.124 62.3053 424.992 65.238 425.072 67.984C422.939 74.4358 429.684 80.4877 435.656 79.528C435.203 81.3942 435.283 83.4204 436.109 85.0733C437.575 88.0326 440.775 88.9657 443.414 86.8062C446.133 84.5668 447.813 80.3011 446.773 76.8619C446.133 74.7557 444.347 73.2094 442.294 72.7029Z" fill="#FCB435"/>
<path d="M420.086 87.5793C423.419 88.2192 426.111 87.5793 429.097 85.1532C431.31 83.367 431.657 81.1275 431.897 79.5012C430.457 78.5148 429.017 76.4353 428.831 73.5293C428.697 71.5031 429.284 69.4236 429.337 67.3708C426.298 66.0111 423.525 64.0382 420.113 63.5317C418.247 63.2384 415.287 58.2796 413.474 57.4531C414.994 61.7987 414.034 68.1972 413.714 70.8099C413.341 73.8226 412.621 80.1144 410.782 83.287C411.901 84.5934 416.994 86.9928 420.086 87.5793Z" fill="#FFB9A4"/>
<path d="M440.828 48.9218C440.268 44.2296 438.775 38.3909 434.909 35.325C431.07 32.2857 427.338 32.1524 422.725 32.8456C415.581 33.912 410.062 44.8428 412.061 53.9606C413.901 62.3586 419.233 72.7295 428.857 73.7693C439.521 74.889 441.681 56.0401 440.828 48.9218Z" fill="#FFC9B6"/>
<path d="M440.615 57.7464C440.615 57.7464 438.695 62.3319 429.124 61.5855C424.165 61.2122 417.58 52.9208 415.341 53.9606C416.647 55.7735 421.179 59.2927 425.178 62.3586C425.685 63.6116 422.459 70.8366 422.459 70.8366C422.459 70.8366 413.554 65.6378 410.409 60.0392C409.662 65.1046 423.685 77.5284 431.55 75.4488C442.667 72.4895 440.615 57.7464 440.615 57.7464Z" fill="white"/>
<path d="M421.952 52.3877C421.952 52.3877 418.06 48.0421 416.407 51.4546C414.754 54.8671 417.9 60.6791 420.619 60.0392C423.339 59.426 421.952 52.3877 421.952 52.3877Z" fill="#FFC9B6"/>
<path d="M445.067 28.7666C439.975 23.8344 430.03 23.0079 424.325 27.0336C421.632 23.8077 416.78 24.2876 412.941 26.1272C408.862 28.0467 406.623 32.4723 407.049 36.7913C399.424 37.1646 395.639 48.6285 400.704 54.0406C398.438 55.8535 396.972 58.7062 397.212 61.9321C397.558 66.7576 401.344 70.1435 405.663 71.5831C402.677 74.1425 400.464 77.2885 402.064 81.5541C404.09 87.0195 410.115 88.2992 415.261 88.7524C415.261 88.7791 415.261 88.7791 415.234 88.8057C413.794 92.5915 415.954 95.7641 417.953 97.6303C420.966 100.403 424.805 100.27 427.764 98.1102C430.644 96.004 432.03 92.1916 429.657 89.1523C429.071 88.4058 426.911 86.0864 424.592 86.0864C426.325 80.7543 422.939 76.2754 418.06 76.5153C419.073 73.7959 419.34 71.0499 417.793 68.9171C421.286 65.9045 423.659 61.7454 423.605 56.9732C423.579 55.1603 423.179 53.4274 422.192 52.2277C427.684 49.7483 431.523 45.4293 433.416 39.4574C435.762 40.4971 437.949 42.2034 439.308 44.1496C440.881 46.4157 441.094 51.4545 440.988 53.0808C451.572 48.8685 451.732 35.2184 445.067 28.7666Z" fill="#FCB435"/>
<path d="M414.248 134.768L414.514 144.633C414.514 144.633 427.978 150.791 438.535 149.325C451.305 147.539 454.371 142.127 454.371 142.127L451.892 130.183C451.892 130.183 450.825 134.608 439.761 135.648C428.751 136.741 414.248 134.768 414.248 134.768Z" fill="#D8322A"/>
<path d="M423.285 184.17C423.285 184.17 425.578 196.434 435.869 199.046C446.187 201.659 451.865 199.046 451.865 199.046C451.865 199.046 440.321 197.207 435.496 194.141C430.804 191.208 423.285 184.17 423.285 184.17Z" fill="#D8322A"/>
<path d="M436.029 184.17C436.029 184.17 442.907 183.423 447.813 178.038C452.718 172.626 454.398 168.04 454.398 168.04C454.398 168.04 455.144 178.518 448.026 182.704C440.935 186.863 436.029 184.17 436.029 184.17Z" fill="#D8322A"/>
<path d="M426.431 205.285C426.431 205.285 432.617 217.789 440.695 222.961C445.76 226.187 450.746 225.653 450.746 225.653C450.746 225.653 446.48 221.494 440.775 217.789C435.043 214.11 426.431 205.285 426.431 205.285Z" fill="#D8322A"/>
<path d="M421.339 117.599C421.339 117.599 430.35 119.385 434.323 117.599C438.588 115.679 444.614 111.947 444.614 111.947C444.614 111.947 443.067 119.492 434.323 121.171C426.325 122.664 421.339 117.599 421.339 117.599Z" fill="#D8322A"/>
<path d="M429.257 156.55C427.684 155.43 426.111 154.444 424.672 153.59C419.126 149.565 414.247 149.085 411.635 146.952C402.97 139.887 397.238 139.407 397.238 139.407C397.238 139.407 404.197 126.344 405.396 119.359C409.342 118.159 416.434 119.012 414.247 106.135C412.061 93.258 403.397 87.9526 403.397 87.9526C403.397 87.9526 392.039 90.5653 392.653 102.349C389.027 115.093 386.894 120.692 385.374 126.823C383.855 132.955 384.468 136.394 383.562 139.834C382.655 143.273 383.722 144.713 387.801 149.511C390.2 152.337 408.436 157.43 410.782 157.723C410.782 160.069 413.314 164.308 415.954 164.308C414.274 167.054 416.674 167.88 417.18 168.547C418.7 170.466 419.1 170.893 426.431 168.547C433.763 166.254 434.216 160.096 429.257 156.55Z" fill="#FFC9B6"/>
<path d="M204.298 468.663C205.604 464.584 210.43 452.56 212.216 448.241C213.256 445.708 222.773 444.455 222.8 444.802C222.96 446.108 222.72 450.054 222.773 451.414C222.853 453.12 222.773 456.906 220.267 458.825C220.107 461.971 218.934 466.477 216.721 471.889C214.375 477.621 210.003 480.287 206.564 479.46C202.538 478.5 202.351 474.795 204.298 468.663Z" fill="#28287C"/>
<path d="M273.801 419.821C276.014 422.274 278.493 424.993 280.786 427.392C283.852 430.645 287.478 434.084 290.81 437.044C294.889 440.696 295.209 445.095 288.517 444.722C277.693 444.109 275.187 439.576 270.175 435.737C269.482 435.204 268.309 436.484 265.59 435.391C262.124 433.978 261.697 433.444 261.697 429.979C261.697 427.792 262.07 423.26 263.057 420.967C263.03 420.941 262.977 420.887 262.95 420.861C262.39 420.274 270.842 416.542 273.801 419.821Z" fill="#28287C"/>
<path d="M274.201 370.473C273.188 367.593 272.548 355.196 274.547 344.372C277.24 329.789 274.281 307.048 268.522 296.437C266.709 293.077 262.47 286.919 259.111 284.413C249.833 292.011 217.788 290.731 217.574 290.971C211.363 298.143 213.229 302.542 211.336 307.074C204.378 323.55 207.843 338.56 211.336 348.691C213.655 355.436 216.375 368.286 214.828 376.978C213.442 384.842 209.95 395.027 208.59 402.998C206.057 417.741 210.749 432.538 210.589 448.214C214.588 451.76 217.948 450.72 221.2 448.161C221.2 448.161 232.344 419.394 233.117 405.824C233.464 399.612 229.891 381.83 230.505 378.071C232.211 367.7 234.53 365.38 237.596 353.197C240.929 340.026 242.688 329.735 242.688 329.602C245.834 349.304 253.193 357.169 253.352 367.007C253.406 370.659 250.953 381.537 254.046 390.841C257.831 402.145 257.831 411.61 261.244 422.087C264.337 425.633 271.481 424.3 271.935 420.941C271.881 409.477 279.346 385.296 274.201 370.473Z" fill="#301121"/>
<path d="M222.56 227.333C224.933 229.546 227.092 231.092 230.318 231.972C233.811 232.905 237.703 233.518 240.049 230.132C241.062 228.693 241.542 226.986 241.915 225.28C240.902 224.827 240.049 224 239.889 223.121C239.623 221.601 240.476 219.335 240.742 217.815C241.116 215.709 241.569 213.523 241.782 211.337C238.69 209.657 235.89 207.338 232.318 206.511C230.372 206.058 227.652 200.539 225.813 199.553C227.039 204.272 225.519 210.964 224.959 213.71C224.32 216.856 223.84 218.215 221.627 221.414C222.4 221.654 221.707 226.533 222.56 227.333Z" fill="#FFB9A4"/>
<path d="M263.91 289.532C260.764 283.373 255.086 280.174 253.193 273.429C251.22 266.39 253.406 258.766 255.459 252.021C255.699 251.274 255.059 250.581 254.339 250.554C241.702 250.048 230.451 255.14 218.428 258.206C218.348 258.232 218.294 258.286 218.241 258.339C218.028 258.179 217.814 257.992 217.601 257.832C217.255 257.593 216.748 258.072 217.015 258.419C220.401 262.871 223.253 267.244 224.053 272.736C223.84 280.307 212.083 296.117 211.309 299.636C216.668 305.581 231.811 310.06 244.848 305.581C254.099 303.155 263.91 296.17 263.91 289.532Z" fill="#FFC9B6"/>
<path d="M264.15 269.536C264.15 269.536 260.951 275.775 259.884 278.281C258.818 280.787 261.217 287.026 263.59 289.292C265.963 291.558 272.308 292.758 272.921 290.252C273.508 287.745 268.016 287.665 268.016 287.665C268.016 287.665 270.868 284.946 270.282 281.774C269.695 278.601 269.562 275.242 269.562 275.242L271.961 271.696C271.961 271.696 267.616 266.284 264.15 269.536Z" fill="#FFC9B6"/>
<path d="M276.014 240.05C272.148 236.211 269.882 232.692 269.882 232.692C266.523 226.906 261.671 218.162 257.592 214.189C251.726 208.457 240.209 212.536 240.209 212.536L252.18 240.317C252.18 240.317 261.137 246.342 267.536 252.394C265.376 257.939 265.27 264.258 263.43 270.949C263.43 270.949 267.083 268.763 270.735 273.509C272.975 272.256 275.081 269.243 278.573 263.618C282.172 257.832 281.906 250.527 281.879 247.168C281.879 247.195 280.839 244.875 276.014 240.05Z" fill="#AFBEF9"/>
<path d="M221.174 284.44C224.933 278.068 225.626 272.816 221.92 263.831C220.4 260.125 217.254 255.593 215.468 253.407C212.349 248.341 210.749 243.809 210.323 241.303C209.87 238.637 209.576 235.918 209.39 233.198C209.336 232.425 209.15 231.385 209.016 230.292C210.376 229.492 211.736 228.666 213.095 227.866C216.188 226 219.094 223.867 221.627 221.414C223.44 222.667 229.225 227.093 231.038 228.293C237.596 232.638 241.222 228.186 239.542 221.894C235.97 214.189 237.276 213.736 239.276 216.242C240.689 218.028 243.035 215.976 243.275 216.269C246.847 220.321 250.926 226.64 253.512 231.439C255.352 234.931 258.978 240.53 258.711 244.342C258.471 247.755 257.538 250.074 256.445 252.474C256.178 253.034 255.272 255.193 254.899 256.713C254.126 259.832 253.352 265.244 255.645 269.536C259.058 275.935 261.564 281.693 263.883 284.44C266.203 287.186 267.136 289.825 265.696 292.011C261.004 299.103 251.166 307.394 235.41 307.394C213.629 307.394 212.136 303.928 212.136 303.928C212.136 303.928 217.414 290.838 221.174 284.44Z" fill="#5252AF"/>
<path d="M231.758 260.845C231.758 260.845 236.85 255.06 243.968 251.541C251.06 248.022 255.432 247.595 255.432 247.595C255.432 247.595 247.754 254.793 243.968 257.059C240.182 259.299 231.758 260.845 231.758 260.845Z" fill="#3A3A93"/>
<path d="M240.689 218.055C240.689 218.055 252.1 238.85 252.153 244.689C252.206 250.528 248.394 263.858 250.42 275.135C252.953 289.132 254.072 328.856 254.366 344.505C259.618 364.074 259.564 394.094 259.564 394.094C259.564 394.094 273.748 387.215 277.933 377.591C278.84 360.368 279.106 326.296 275.987 312.246C272.228 295.344 265.536 284.173 262.017 277.081C256.605 266.177 259.031 252.207 259.964 245.915C260.764 240.477 259.138 237.677 255.432 230.879C251.38 223.467 245.301 214.669 243.595 212.616C240.316 208.671 240.689 218.055 240.689 218.055Z" fill="#DCE4FF"/>
<path d="M219.974 222.881C219.974 222.881 229.625 228.399 239.996 243.916C246.314 253.38 249.433 257.273 252.153 271.003C254.659 283.666 255.432 299.076 255.432 308.647C255.432 327.549 257.058 331.549 255.432 345.012C251.7 375.885 247.994 393.694 246.341 398.253C246.341 398.253 231.998 397.56 221.867 395.027C210.163 392.094 202.698 384.256 202.698 384.256C202.698 384.256 201.685 365.754 203.284 332.562C204.084 315.632 207.79 301.316 212.402 293.664C218.561 283.453 220.587 280.227 221.6 271.723C222.613 263.218 218.614 261.698 214.375 255.166C210.856 249.754 200.965 231.652 211.283 227.92C215.255 226.48 217.015 225.014 219.974 222.881Z" fill="#DCE4FF"/>
<path d="M243.595 214.883C243.595 214.883 251.62 219.815 255.432 224.72C254.606 228.32 252.153 233.545 252.153 233.545L259.618 236.664C259.618 236.664 258.711 247.622 256.445 252.474C254.019 257.646 249.887 265.244 249.887 265.244C249.887 265.244 247.541 262.445 249.86 252.527C250.927 247.968 250.607 239.597 248.9 235.704C245.648 228.293 239.249 216.216 239.249 216.216L243.595 214.883Z" fill="#F8FCFF"/>
<path d="M259.138 195.687C257.672 194.514 254.579 193.554 253.433 195.661C253.433 195.687 253.459 195.687 253.459 195.714C249.753 198.033 244.555 201.419 242.848 205.392C241.275 209.044 243.328 213.87 246.767 215.549C253.006 218.562 258.018 211.79 257.352 207.151C257.458 207.124 257.592 207.098 257.698 207.071C259.858 206.431 261.697 204.645 261.99 202.352C262.337 199.953 260.977 197.18 259.138 195.687Z" fill="#301121"/>
<path d="M255.432 192.781C255.219 187.769 254.126 181.477 250.287 177.905C246.474 174.386 239.943 174.012 235.01 174.359C227.359 174.892 221.947 183.37 223.307 193.154C224.56 202.192 230.611 216.136 240.689 218.029C251.913 220.161 255.752 200.379 255.432 192.781Z" fill="#FFC9B6"/>
<path d="M232.611 196.22C232.611 196.22 229.358 190.968 226.986 194.221C224.613 197.473 226.826 204.139 229.785 203.979C232.771 203.845 232.611 196.22 232.611 196.22Z" fill="#FFC9B6"/>
<path d="M222.32 220.268C222.32 220.268 225.333 223.441 229.305 227.066C235.917 233.118 243.595 244.102 246.181 250.501C248.634 256.579 251.406 267.457 251.406 267.457C251.406 267.457 240.289 260.925 237.596 258.846C231.118 253.86 229.305 248.768 229.305 248.768L232.851 242.663L224.719 242.156C224.719 242.156 223.866 237.837 221.893 233.332C219.814 228.533 218.001 228.16 217.281 224.827C216.748 222.268 218.428 218.215 218.428 218.215L222.32 220.268Z" fill="#F8FCFF"/>
<path d="M254.312 202.725C254.312 202.725 251.913 206.938 242.315 206.191C237.356 205.818 234.451 196.3 232.211 197.367C233.517 199.18 234.371 203.899 238.37 206.991C238.876 208.244 237.01 214.749 237.01 214.749C237.01 214.749 231.678 210.404 228.532 204.778C227.785 209.87 236.877 222.188 244.795 220.108C255.912 217.149 254.312 202.725 254.312 202.725Z" fill="white"/>
<path d="M254.925 173.479C250.58 168.707 244.075 166.627 239.409 170.2C233.811 164.308 222.587 165.961 216.908 172.599C212.776 177.425 211.336 184.063 211.336 190.275C211.336 193.581 210.963 199.526 213.709 202.192C211.869 202.246 210.056 203.765 208.963 205.125C207.257 207.258 206.724 210.11 207.47 212.75C208.35 215.949 213.122 219.868 216.108 217.949C218.054 221.548 222 223.654 226.212 221.121C228.638 219.681 230.345 217.095 231.011 214.376C231.491 212.51 231.758 209.95 231.331 207.738C232.771 206.751 233.944 204.965 234.424 203.525C234.824 202.299 235.303 199.073 234.824 196.834C236.876 196.807 239.276 195.367 240.769 194.407C242.662 193.154 244.421 191.555 245.514 189.635C247.78 192.115 252.553 193.128 256.365 192.408C259.218 185.796 259.884 178.944 254.925 173.479Z" fill="#301121"/>
<path d="M240.39 243.032L236.765 245.125L238.858 248.749L242.483 246.656L240.39 243.032Z" fill="#301121"/>
<path d="M245.277 242.572L233.895 249.144L238.24 256.671L249.622 250.099L245.277 242.572Z" fill="#EDDCDA"/>
<path d="M231.758 320.591L214.535 326.136L215.975 331.655L233.357 326.136L231.758 320.591Z" fill="#F8FCFF"/>
<path d="M252.179 271.003C252.179 271.003 249.113 278.921 250.02 284.466C250.926 290.012 252.393 305.581 253.352 310.593C254.286 315.606 255.485 343.359 255.485 343.359C255.485 343.359 256.952 330.455 256.205 318.725C255.485 306.994 253.672 294.544 252.553 286.172C251.406 277.774 252.179 271.003 252.179 271.003Z" fill="#AFBEF9"/>
<path d="M189.635 283.293L205.737 312.246L247.167 288.625L231.091 259.672L228.052 261.298L189.635 283.293Z" fill="#632E50"/>
<path d="M186.595 284.893L202.725 313.873L244.181 290.331L228.052 261.298L186.595 284.893Z" fill="#4F213D"/>
<path d="M230.452 260.019L246.208 288.252L244.475 289.158L228.665 260.978L230.452 260.019Z" fill="white"/>
<path d="M230.211 261.272L235.357 270.576L241.435 267.324L236.477 257.966L230.211 261.272Z" fill="#FF5E4C"/>
<path d="M233.197 268.097L247.781 268.79L241.702 283.453L233.197 268.097Z" fill="#72BEF7"/>
<path d="M220.454 298.889C220.454 298.889 224.373 298.889 227.119 300.196C228.558 299.156 231.571 297.663 231.571 297.663C231.571 297.663 233.597 303.662 229.705 307.821C225.812 312.006 220.88 309.607 217.894 307.074C214.935 304.568 220.454 298.889 220.454 298.889Z" fill="#FFC9B6"/>
<path d="M210.003 228.559C210.003 228.559 202.431 231.892 200.459 240.21C198.086 250.208 192.567 256.873 190.861 264.204C188.568 274.095 186.462 280.307 185.849 282.68C189.794 286.972 192.78 293.371 198.779 297.69C207.15 303.742 217.948 307.101 217.948 307.101C217.948 307.101 223.04 305.315 223.013 299.076C221.494 297.583 217.841 293.584 213.335 289.452C207.604 284.226 202.458 279.534 202.458 279.534C202.458 279.534 210.216 271.403 216.881 260.819C225.892 239.677 210.003 228.559 210.003 228.559Z" fill="#AFBEF9"/>
<path d="M65.211 317.125C70.3031 318.378 75.7951 318.672 80.6206 317.312C80.6473 321.578 80.7806 325.71 81.1272 329.416C82.5402 344.665 80.7539 347.678 89.3919 352.744C97.1234 357.276 98.1364 358.769 102.056 363.808C104.855 367.433 100.296 369.486 96.6701 369.113C88.752 368.287 81.3671 360.528 77.0482 359.355C72.7292 358.182 66.8106 356.743 67.3172 352.104C67.877 347.118 69.1301 347.145 69.6366 342.773C70.3031 336.907 67.4771 326.563 65.211 317.125Z" fill="#FFC9B6"/>
<path d="M20.715 337.574C25.4872 339.76 30.8193 341.04 35.8314 340.613C35.0583 344.799 34.4451 348.904 34.0718 352.61C32.6322 367.86 30.3127 370.473 37.8843 377.058C44.656 382.95 45.3758 384.603 48.2818 390.281C50.3613 394.36 45.5091 395.56 41.99 394.494C34.3651 392.201 28.5532 383.216 24.5008 381.27C20.4751 379.297 14.9298 376.791 16.2894 372.339C17.7824 367.54 19.0088 367.78 20.3151 363.594C22.0747 357.996 21.2216 347.305 20.715 337.574Z" fill="#FFC9B6"/>
<path d="M17.7025 368.926C17.7025 368.926 19.4621 372.392 19.8086 374.285C22.9012 376.951 26.7137 379.004 30.686 382.87C34.6318 386.736 37.1645 389.162 40.9236 387.455C44.6827 385.749 45.2959 384.416 45.2959 384.416C45.2959 384.416 49.9081 388.575 50.8412 390.974C51.7743 393.374 46.5489 398.173 39.4573 396.093C32.3656 394.014 30.2595 389.002 26.7403 385.216C23.2212 381.43 19.7553 380.017 16.5294 376.978C13.2769 373.965 17.7025 368.926 17.7025 368.926Z" fill="#4646A5"/>
<path d="M47.7487 192.195C55.6401 185.316 74.0624 177.452 75.6087 180.491C76.6218 191.395 79.5811 197.42 79.5811 209.124C84.9664 223.334 92.218 256.126 92.218 271.483C92.218 277.295 87.5525 287.506 85.8996 294.917C83.5268 305.581 82.0871 318.538 81.1274 329.389C78.1947 332.295 70.25 332.908 67.9572 328.536C66.1176 320.778 61.5321 305.315 61.4254 295.744C61.3454 285.906 63.4249 280.787 68.8103 273.376C61.772 267.644 54.6537 249.008 51.6411 240.557C49.8282 235.465 43.5364 222.481 41.2969 215.043C38.7908 206.805 41.2169 197.927 47.7487 192.195Z" fill="#301121"/>
<path d="M51.0277 290.305C46.0689 290.625 41.3234 292.331 36.1779 292.091C32.4721 291.931 33.2453 293.451 30.0461 292.224C27.1134 283.24 24.794 273.855 24.3408 263.778C23.9409 254.98 22.7678 245.196 22.048 235.998C15.9694 226.986 15.9694 204.299 27.0068 191.315C27.4067 190.862 48.5483 207.205 61.6118 206.751C61.7185 206.751 61.7985 206.805 61.8784 206.858C61.9051 206.725 61.9051 206.565 61.9318 206.431C61.9584 206.191 62.3583 206.138 62.465 206.351C67.1572 216.909 63.5047 229.039 55.9865 237.277C57.6661 250.181 54.0137 274.575 51.0277 290.305Z" fill="#4F213D"/>
<path d="M30.6327 290.731C29.7796 289.612 50.8412 288.625 51.0545 290.278C52.5208 303.475 48.815 310.167 47.1088 318.272C44.3094 331.655 36.8446 346.852 33.4587 358.582C27.5135 359.062 24.9008 355.943 21.5149 354.023C15.2231 328.349 30.6327 290.758 30.6327 290.731Z" fill="#4F213D"/>
<path d="M68.0371 348.478C68.0371 348.478 70.4098 351.544 71.103 353.357C74.6488 355.41 78.7812 356.716 83.3934 359.782C88.0056 362.848 90.9383 364.767 94.2975 362.395C97.6567 360.022 98.0299 358.609 98.0299 358.609C98.0299 358.609 103.335 361.835 104.695 364.021C106.081 366.207 101.816 371.886 94.4574 371.166C87.0992 370.446 84.1132 365.914 79.9542 362.848C75.7952 359.782 72.1428 359.035 68.3837 356.636C64.6246 354.237 68.0371 348.478 68.0371 348.478Z" fill="#4646A5"/>
<path d="M84.8597 142.5C84.8597 142.5 86.2461 139.754 93.311 140.554C100.376 141.327 132.235 149.618 132.235 149.618L130.715 162.922C130.715 162.922 89.232 162.762 85.7395 158.843C82.3004 154.897 84.8597 142.5 84.8597 142.5Z" fill="#3A3A93"/>
<path d="M87.2325 155.43C85.8728 157.856 87.5258 157.19 85.7928 158.816C75.8752 155.323 43.9629 117.812 52.8941 109.654C52.8941 109.654 59.3992 105.442 68.437 110.534C77.8214 115.866 93.311 140.527 93.311 140.527C93.311 140.527 93.3377 140.527 93.3377 140.5C92.138 145.726 89.5519 151.271 87.2325 155.43Z" fill="#3A3A93"/>
<path d="M39.0307 64.7047C32.4456 60.8656 19.1954 62.8652 18.4223 76.9952C17.6491 91.1252 22.6612 106.535 16.3961 114.293C10.1576 122.025 0 116.373 0 116.373C0 116.373 0 129.596 8.63793 128.476C11.3839 135.568 21.9947 136.714 28.4732 131.436C38.5241 123.251 31.2992 107.041 31.2992 86.3263C41.2435 82.3273 49.4548 73.396 49.4548 73.396C49.4548 73.396 44.8693 68.1173 39.0307 64.7047Z" fill="#301121"/>
<path d="M74.4888 171.799C75.0486 176.572 77.8213 191.715 78.3545 196.407C74.8354 201.979 68.9701 207.044 55.2134 211.017C41.2701 215.043 30.0461 211.017 19.9685 204.832C20.4484 199.686 27.6467 188.196 30.0461 178.518C32.8188 167.294 28.7664 155.91 25.034 148.605C22.288 143.246 23.0344 133.782 29.113 128.903C33.5119 125.357 39.6438 122.025 45.0558 119.545C49.3481 117.572 58.4926 109.867 60.7054 111.627C63.5047 113.866 67.6904 119.172 69.8499 122.025C72.4093 125.357 77.2348 133.835 79.5276 137.381C82.8601 142.553 76.6483 150.151 72.7559 153.937C71.9294 156.603 73.3957 162.415 74.4888 171.799Z" fill="#4646A5"/>
<path d="M54.8401 113.467C54.8401 113.467 63.1581 120.078 64.5711 126.237C65.9841 132.422 63.2381 137.194 55.3733 137.354C47.5086 137.514 33.2453 125.944 33.2453 125.944C33.2453 125.944 48.9749 115.306 54.8401 113.467Z" fill="#3A3A93"/>
<path d="M38.844 103.442C38.844 102.722 51.161 105.442 51.2144 105.335C51.3477 105.122 51.6676 105.229 51.6676 105.469C51.9075 109.521 51.6942 112.96 54.1737 116.453C55.4533 118.265 57.7195 120.638 60.0123 124.531C61.9585 127.863 62.1451 131.116 59.6124 133.062C55.6133 136.155 43.4296 131.356 36.2846 124.424C37.1111 123.304 38.6041 121.998 39.0839 119.572C39.7504 116.373 38.7907 109.361 38.844 103.442Z" fill="#FFB9A4"/>
<path d="M68.357 93.0714C68.4903 88.0593 67.8238 81.7408 64.278 77.9283C60.7589 74.1692 54.3604 73.3694 49.4815 73.3961C41.91 73.4227 36.0448 81.5008 36.7379 91.3385C37.3778 100.43 42.3899 114.72 52.2009 117.279C63.0783 120.078 68.1704 100.67 68.357 93.0714Z" fill="#FFC9B6"/>
<path d="M80.3808 81.6607C74.7288 78.8614 63.5048 67.8506 57.8262 66.3843C43.5096 62.7052 39.7772 74.2758 39.7505 74.3024C23.8077 74.7557 31.2459 98.4301 39.0307 107.308C41.0569 105.042 40.8436 102.163 42.8165 98.1102C43.5896 96.5105 44.9226 92.2982 45.8557 90.8052C48.3351 92.8581 58.2528 91.2584 62.625 91.0985C71.8495 94.511 78.9145 90.4586 80.3808 81.6607Z" fill="#4F213D"/>
<path d="M44.5759 98.4567C44.5759 98.4567 41.7233 92.9913 39.1905 96.0839C36.6578 99.1765 38.3907 105.948 41.2967 106.002C44.2293 106.028 44.5759 98.4567 44.5759 98.4567Z" fill="#FFC9B6"/>
<path d="M66.624 155.857C66.624 155.857 61.6652 163.775 55.3734 166.147C49.0816 168.547 45.6691 165.854 45.6691 165.854C45.6691 165.854 50.2546 163.615 55.3734 160.575C60.4655 157.563 66.624 155.857 66.624 155.857Z" fill="#3A3A93"/>
<path d="M191.954 181.77C192.514 183.743 196.886 189.875 197.819 194.594C198.753 199.313 194.993 203.765 188.008 204.192C181.023 204.618 178.784 191.022 178.784 191.022L191.954 181.77Z" fill="#FFC9B6"/>
<path d="M191.954 166.147C190.408 157.056 185.182 149.191 183.449 142.873C183.423 142.873 187.129 110.001 178.784 101.043C171.986 75.4755 159.722 78.1948 159.722 78.1948L147.725 80.2744C147.725 80.2744 159.269 108.161 166.92 118.159C173.718 127.063 166.6 146.046 166.6 146.046C166.6 146.046 175.052 188.436 181.61 190.062C188.142 191.715 191.954 187.796 193.767 186.303C193.447 181.77 193.5 175.239 191.954 166.147Z" fill="#EF4335"/>
<path d="M108.907 331.069C108.028 332.028 105.122 334.694 104.695 337.6C104.242 340.48 103.362 342.932 104.695 347.145C106.028 351.357 108.161 350.691 108.161 350.691C108.161 350.691 109.361 358.475 112.453 363.141C115.572 367.807 123.784 369.566 127.783 369.593C134.661 369.593 133.835 364.927 129.969 357.809C125.863 350.264 122.931 344.532 123.144 338.853C123.357 333.175 123.117 326.696 123.117 326.696L108.907 331.069Z" fill="#301121"/>
<path d="M169.133 298.33C169.133 298.33 167.32 301.635 165.427 305.075C163.534 308.487 164.387 309.82 164.201 314.379C164.014 318.965 172.092 320.484 172.092 320.484L174.278 319.071C174.278 319.071 175.238 321.497 181.877 325.39C188.515 329.282 196.486 329.602 199.766 327.789C203.045 325.976 204.831 325.097 198.353 318.991C191.874 312.859 184.889 303.928 184.889 303.928L169.133 298.33Z" fill="#301121"/>
<path d="M140.66 194.567C140.66 194.567 153.403 213.416 158.762 225.653C164.147 237.864 176.491 247.702 175.771 249.541C174.012 253.913 164.307 268.79 166.653 282.12C168.813 294.464 167.56 303.368 167.56 303.368C167.56 303.368 178.677 312.486 184.436 306.248C186.889 294.251 201.525 244.129 203.765 240.13C199.899 229.279 191.154 214.189 184.889 193.901C178.624 173.612 171.959 160.655 171.346 160.229C170.732 159.776 150.177 172.493 150.177 172.493L140.66 194.567Z" fill="#301121"/>
<path d="M119.385 170.84C119.385 170.84 113.28 181.291 111.947 195.527C110.614 209.737 113.546 219.042 115.706 236.851C117.199 249.168 120.665 263.698 120.665 263.698C120.665 263.698 108.294 283.986 106.801 302.622C105.308 321.258 106.934 333.468 106.934 333.468C106.934 333.468 109.014 337.707 112.88 338.587C118.318 339.813 123.331 336.587 123.331 336.587C123.331 336.587 143.379 284.386 150.151 274.495C152.417 256.153 155.536 240.93 156.096 231.039C156.656 221.174 153.323 208.377 153.323 208.377C153.323 208.377 166.094 199.1 159.722 172.519C153.323 145.912 119.385 170.84 119.385 170.84Z" fill="#4F213D"/>
<path d="M135.328 88.3525C138.714 87.2861 154.523 77.1818 155.856 77.8483C165.401 82.5672 176.171 101.096 177.584 113.653C178.171 118.852 177.024 132.369 173.932 140.687C177.131 145.886 175.958 150.951 174.252 151.271C175.025 153.884 175.265 162.362 176.225 164.788C178.091 169.453 179.85 172.573 177.958 174.386C173.345 178.838 161.641 185.29 146.898 187.769C131.249 190.382 120.771 180.891 115.892 174.386C114.746 172.839 116.586 164.628 120.025 162.442C117.412 154.47 114.719 144.553 112.16 134.982C108.294 120.612 101.789 103.816 113.973 97.6037C119.225 94.911 127.916 90.7786 135.328 88.3525Z" fill="#FF5E4C"/>
<path d="M147.272 84.5667C154.31 90.4853 164.894 98.75 164.467 109.681C164.041 120.612 155.11 125.357 142.873 118.692C128.449 110.827 125.09 92.5381 125.09 92.5381L132.262 89.1789L147.272 84.5667Z" fill="white"/>
<path d="M136.901 70.4634C136.901 70.4634 148.711 86.1397 152.817 92.6448C156.949 99.1499 163.481 108.748 156.949 114.426C152.977 117.866 145.112 114.933 138.66 108.055C134.475 103.602 129.676 96.7772 128.449 90.9385C132.475 88.6991 136.901 70.4634 136.901 70.4634Z" fill="#FFB9A4"/>
<path d="M164.894 65.3445C163.987 59.8792 161.961 53.1074 157.242 49.6949C152.577 46.3357 145.352 46.8156 139.967 47.8553C131.622 49.4816 126.823 59.5059 129.622 70.0901C132.208 79.8745 140.713 94.3777 152.07 95.1242C164.681 95.924 166.254 73.6892 164.894 65.3445Z" fill="#FFC9B6"/>
<path d="M153.27 170.573C159.722 168.574 168.066 165.588 168.066 165.588C168.066 165.588 160.601 172.573 154.683 173.799C148.738 175.025 139.567 173.799 139.567 173.799C139.567 173.799 146.845 172.573 153.27 170.573Z" fill="#EF4335"/>
<path d="M168.066 154.71C168.066 154.71 160.095 155.83 155.723 157.163C151.35 158.496 142.339 162.495 142.339 162.495C142.339 162.495 151.137 161.322 156.683 160.255C162.228 159.162 168.066 154.71 168.066 154.71Z" fill="#EF4335"/>
<path d="M125.064 68.7304C127.303 77.1285 129.169 79.1813 131.275 85.4998C137.301 80.7276 138.074 80.621 139.38 77.715C140.473 75.2889 142.793 70.9966 142.953 68.3039C146.818 70.6766 155.03 68.1439 156.416 64.8647C162.788 66.2777 168.733 63.9316 171.399 61.2922C168.04 56.9465 165.187 46.1224 151.964 43.1365C138.34 40.0705 119.438 47.6154 125.064 68.7304Z" fill="#4F213D"/>
<path d="M141.939 75.2356C141.939 75.2356 138.26 69.9835 135.381 73.8492C132.502 77.715 137.834 82.9404 137.834 82.9404L141.939 75.2356Z" fill="#FFC9B6"/>
<path d="M130.475 174.705C127.303 171.24 124.983 168.627 123.304 166.681C124.557 155.43 122.584 140.287 122.584 140.287C122.584 140.287 127.17 137.248 126.983 125.277C126.77 111.014 121.811 99.6564 115.386 97.7102C105.708 94.8043 98.5097 108.294 98.2698 115.866C98.0565 123.437 101.096 138.527 101.096 138.527C101.096 138.527 96.8834 144.366 96.8834 156.763C96.8834 162.975 99.6028 171.613 101.869 175.958C101.869 175.958 101.496 181.344 108.854 186.303C119.571 193.528 135.541 202.939 135.541 202.939L145.219 193.528C145.272 193.528 138.42 183.343 130.475 174.705Z" fill="#EF4335"/>
<path d="M139.113 189.582C134.608 190.302 130.049 198.673 134.528 202.672C139.007 206.671 147.165 210.404 151.35 208.937C155.563 207.471 158.629 199.18 157.642 195.874C156.656 192.595 149.458 193.821 149.458 193.821C149.458 193.821 146.685 188.382 139.113 189.582Z" fill="#FFC9B6"/>
<path d="M55.3468 299.289C56.2 290.332 76.0352 283 79.1278 298.223C81.7405 311.1 81.0473 334.774 79.581 350.824C78.8345 358.875 78.488 371.219 77.6082 378.417C77.3416 380.63 76.8617 386.629 78.6213 388.122C81.1273 390.281 84.4598 392.147 87.0992 393.934C93.1511 398.039 95.4439 402.518 92.5379 405.638C89.6053 408.757 82.1937 409.157 75.342 403.718C68.9436 398.653 62.5451 392.227 65.3711 386.575C65.7177 385.909 65.931 385.162 65.8243 384.416C64.5713 373.272 62.0119 362.474 61.5853 353.49C61.3987 349.491 61.9586 343.786 64.4646 338.853C62.1985 329.176 53.9072 314.432 55.3468 299.289Z" fill="#FFB6A1"/>
<path d="M77.6083 378.417C77.6083 378.417 77.1551 386.655 79.1546 388.602C81.8473 390.335 86.2729 393.294 88.2991 394.787C90.3519 396.28 85.6597 403.478 80.6742 403.212C75.7154 402.945 65.1046 387.029 65.1046 387.029C65.1046 387.029 65.9844 385.882 65.1046 381.67C64.2248 377.484 77.6083 378.417 77.6083 378.417Z" fill="#F8FCFF"/>
<path d="M87.0725 393.934C89.0454 395.453 92.7512 397.933 93.2844 398.626C96.0037 402.278 96.0037 405.131 92.5113 407.93C88.3256 411.263 82.4337 411.263 75.3154 406.224C72.7293 404.411 70.1699 401.239 68.1971 399.506C64.7312 396.44 63.5049 397.16 63.105 393.72C62.7051 390.121 65.1045 387.029 65.1045 387.029C65.1045 387.029 67.104 390.735 69.7167 393.054C72.3294 395.373 75.5553 398.626 81.0473 398.626C84.2732 398.626 86.9392 396.6 87.0725 393.934Z" fill="#301121"/>
<path d="M82.087 390.521C82.087 390.521 78.6745 390.388 75.6086 394.04C72.5427 397.666 72.3827 398.626 72.3827 398.626L68.7569 395.987C68.7569 395.987 68.9169 393.267 72.676 390.521C76.4351 387.775 78.6212 388.095 78.6212 388.095L82.087 390.521Z" fill="#301121"/>
<path d="M78.3014 370.393C78.3014 370.393 81.1007 372.259 81.9005 373.965C82.7003 375.671 80.3542 375.538 80.5942 376.551C80.8341 377.564 80.8874 379.724 80.3542 381.537C79.821 383.35 74.0358 385.962 68.9703 385.242C63.8782 384.523 62.1719 382.63 61.3455 381.297C60.4923 379.964 62.5985 376.551 62.5985 376.551C62.5985 376.551 61.6121 374.338 61.1322 373.165C60.6523 371.966 63.7449 370.393 63.7449 370.393L64.3847 373.832C64.3847 373.832 66.3576 376.684 71.583 376.338C76.7818 375.991 78.1148 373.139 78.1148 373.139L78.3014 370.393Z" fill="#DCE4FF"/>
<path d="M78.9412 285.399C79.7943 276.442 99.6296 269.11 102.722 284.333C105.335 297.21 104.642 320.884 103.175 336.934C102.429 344.985 102.082 357.329 101.203 364.527C100.936 366.74 100.456 372.739 102.189 374.232C104.695 376.391 108.028 378.258 110.667 380.044C116.719 384.15 119.012 388.628 116.106 391.748C113.173 394.867 105.761 395.267 98.9097 389.828C92.5113 384.763 86.1128 378.338 88.9388 372.686C89.2854 372.019 89.4987 371.273 89.392 370.526C88.139 359.382 85.5796 348.585 85.153 339.6C84.9664 335.601 85.5263 329.896 88.0324 324.963C85.7929 315.286 77.5015 300.569 78.9412 285.399Z" fill="#FFB6A1"/>
<path d="M101.176 364.527C101.176 364.527 100.723 372.765 102.722 374.712C105.415 376.445 109.841 379.404 111.867 380.924C113.92 382.417 109.227 389.615 104.242 389.348C99.283 389.082 88.6723 373.165 88.6723 373.165C88.6723 373.165 89.5254 372.019 88.6723 367.807C87.8191 363.594 101.176 364.527 101.176 364.527Z" fill="#F8FCFF"/>
<path d="M110.667 380.044C112.64 381.563 116.346 384.043 116.879 384.736C119.598 388.389 119.598 391.241 116.106 394.041C111.92 397.373 106.028 397.373 98.9097 392.334C96.3237 390.521 93.7643 387.349 91.7914 385.616C88.3256 382.55 87.0992 383.27 86.6993 379.831C86.2994 376.231 88.6988 373.139 88.6988 373.139C88.6988 373.139 90.6984 376.845 93.3111 379.164C95.9238 381.483 99.1497 384.736 104.642 384.736C107.841 384.736 110.507 382.71 110.667 380.044Z" fill="#301121"/>
<path d="M105.655 376.631C105.655 376.631 102.242 376.498 99.1763 380.15C96.1103 383.776 95.9504 384.736 95.9504 384.736L92.3246 382.097C92.3246 382.097 92.4845 379.377 96.2436 376.631C100.003 373.885 102.189 374.205 102.189 374.205L105.655 376.631Z" fill="#301121"/>
<path d="M101.896 356.529C101.896 356.529 104.695 358.396 105.495 360.102C106.295 361.808 103.949 361.675 104.189 362.688C104.428 363.701 104.482 365.86 103.949 367.673C103.415 369.486 97.6301 372.099 92.5647 371.379C87.4726 370.659 85.7663 368.766 84.9398 367.433C84.0867 366.1 86.1929 362.688 86.1929 362.688C86.1929 362.688 85.2064 360.475 84.7265 359.302C84.2467 358.102 87.3392 356.529 87.3392 356.529L87.9791 359.969C87.9791 359.969 89.952 362.821 95.1774 362.475C100.376 362.128 101.709 359.275 101.709 359.275L101.896 356.529Z" fill="#DCE4FF"/>
<path d="M108.934 261.005C108.934 261.005 111.92 265.537 116.612 269.696C121.304 273.855 122.477 275.268 123.89 278.948C125.303 282.627 119.571 281.694 115.652 279.801C111.76 277.908 108.027 275.242 108.427 275.962C108.801 276.681 107.707 282.6 105.601 282.467C103.522 282.36 104.588 273.136 104.188 268.977C103.788 264.818 108.934 261.005 108.934 261.005Z" fill="#FFC6B3"/>
<path d="M95.0439 195.954C95.0439 195.954 98.9363 200.486 105.281 213.683C111.627 226.853 112.053 238.984 114.026 251.461C116.026 263.964 115.892 268.15 105.628 269.75C95.3638 271.349 82.8069 235.918 81.4205 233.492C80.0342 231.066 95.0439 195.954 95.0439 195.954Z" fill="#AFBEF9"/>
<path d="M98.5631 257.433C98.5631 257.433 104.695 263.485 106.828 275.722C108.694 286.253 109.654 313.739 109.227 316.992C104.828 325.017 98.0832 328.536 86.9392 332.242C66.6774 338.987 52.0143 324.43 52.0143 324.43C52.0143 324.43 51.4277 294.571 55.5601 281.56C59.959 267.724 64.198 264.364 64.198 264.364L98.5631 257.433Z" fill="#EF4335"/>
<path d="M103.149 261.165C103.149 261.165 105.335 265.244 104.615 266.924C103.895 268.603 99.6029 276.308 82.1937 277.375C69.9833 278.121 57.9595 272.922 58.8393 269.27C59.7191 265.617 60.6522 263.938 60.6522 263.938L103.149 261.165Z" fill="#FF5E4C"/>
<path d="M101.896 265.831C95.1506 273.109 82.6736 275.055 74.4622 271.109C68.2504 270.709 60.1456 271.029 58.7327 264.978C58.0128 261.965 58.7327 260.179 61.1587 256.819C57.6396 252.154 51.8276 231.412 55.9067 223.414C58.9193 217.495 72.2761 208.804 78.2213 206.938C85.4729 204.645 84.2199 204.992 91.4981 206.511C92.9378 206.111 93.0178 210.59 94.0842 211.977C99.8161 219.362 102.749 224.747 104.135 235.704C104.802 240.957 103.549 247.995 105.521 253.46C107.948 260.312 105.468 261.992 101.896 265.831Z" fill="#DCE4FF"/>
<path d="M90.8316 209.791C90.2984 212.963 92.8311 218.029 91.4448 220.908C89.0454 225.947 81.6338 222.721 78.6479 220.721C76.0352 218.962 70.5431 214.749 67.6905 210.35C68.277 208.857 72.9692 200.166 73.6357 196.007C77.6081 199.446 91.1515 207.818 90.8316 209.791Z" fill="#FFB6A1"/>
<path d="M93.7109 219.842C93.7109 219.842 96.057 223.894 93.7643 227.386C94.6174 229.866 96.4036 230.852 98.7231 236.611C100.483 240.957 101.896 246.155 101.896 246.155C101.896 246.155 97.8699 246.155 94.9106 242.156C94.5107 242.236 94.6174 247.888 89.9518 249.754C85.9261 242.156 89.9518 228.48 89.9518 228.48C89.9518 228.48 86.486 224.48 87.7124 223.254C88.9654 222.054 93.7109 219.842 93.7109 219.842Z" fill="#FF5E4C"/>
<path d="M91.4982 206.538C91.4982 206.538 96.1371 210.777 97.4168 216.589C98.5365 221.681 98.8031 224.88 98.8031 224.88L90.1385 221.841C90.1385 221.841 90.4318 224.88 85.9262 230.026C78.568 228.266 67.7439 220.828 66.6775 216.482C65.6111 212.137 69.6368 202.939 69.6368 202.939L72.3561 204.325C72.3561 204.325 72.4894 208.617 77.7681 213.47C82.7803 218.082 89.9786 219.815 89.9786 219.815C89.9786 219.815 89.9519 211.337 91.4982 206.538Z" fill="white"/>
<path d="M53.5338 288.599C53.5338 288.599 55.9066 295.184 56.5731 300.329C57.2396 305.475 60.8121 306.861 59.719 308.274C59.0525 309.127 57.053 308.407 54.9735 306.861C52.894 305.315 51.2677 302.702 51.0544 303.635C49.6414 309.687 48.0952 314.113 44.8693 314.752C42.5498 315.206 40.3103 311.153 40.5503 303.235C40.8169 295.317 42.6831 291.585 45.1092 288.599C47.5353 285.613 53.5338 288.599 53.5338 288.599Z" fill="#FFC6B3"/>
<path d="M68.6236 223.867C71.3163 231.732 68.0638 237.731 66.5441 246.235C65.0245 254.74 62.0919 261.965 60.7855 268.817C59.4792 275.668 57.2397 281.64 55.1869 288.359C54.0405 292.091 52.3875 292.838 49.4016 292.891C47.0022 292.918 42.7365 292.064 41.6434 289.425C40.1771 285.879 39.6706 273.855 43.403 259.645C47.1355 245.462 46.6289 223.521 55.2135 218.828C63.7448 214.163 66.5175 217.762 68.6236 223.867Z" fill="#AFBEF9"/>
<path d="M91.3647 177.638C83.7132 175.372 71.3428 180.917 70.0898 189.769C69.3433 191.528 71.5561 195.474 71.9294 197.553C73.0758 203.792 76.4883 212.537 90.0317 212.057C104.748 211.524 106.454 182.144 91.3647 177.638Z" fill="#FFC6B3"/>
<path d="M108.961 179.558C107.787 178.118 106.241 177.505 104.615 177.318C107.974 174.759 108.347 171.053 103.362 168.547C100.749 167.241 93.6309 166.627 86.1927 167.72C75.2353 162.468 68.0637 171.293 65.8509 179.291C56.9463 188.222 66.3308 202.859 71.9827 206.485C74.8354 205.312 78.1679 201.073 77.5547 197.927C82.5402 196.034 87.4457 191.502 86.9925 185.903C92.9111 190.355 103.682 193.181 108.907 186.303C110.507 184.197 110.667 181.637 108.961 179.558Z" fill="#4F213D"/>
<path d="M79.2342 199.1C79.2342 199.1 74.9153 193.528 71.956 197.314C68.9967 201.099 75.2085 206.511 75.2085 206.511L79.2342 199.1Z" fill="#FFC6B3"/>
<path d="M64.8912 201.019C64.7846 200.566 66.7041 201.553 66.4375 202.032C71.7162 210.111 78.9945 214.936 84.1666 223.201C88.3523 229.946 87.4458 239.197 84.3799 245.515C82.6203 237.757 79.2611 231.199 69.3968 227.813C63.9848 225.973 58.1195 224.614 54.787 219.495C49.5349 211.444 56.5199 202.299 64.8912 201.019Z" fill="#301121"/>
<path d="M63.5847 195.234C66.624 198.327 70.6497 202.219 70.9696 204.112C71.2629 206.005 69.53 209.284 63.5847 206.831C57.6661 204.378 56.6264 201.153 58.5193 198.273C60.3855 195.367 63.5847 195.234 63.5847 195.234Z" fill="#FF5E4C"/>
<path d="M90.1384 261.165C90.1384 261.165 86.1127 264.871 79.2343 265.991C72.356 267.11 67.2639 262.818 67.2639 262.818C67.2639 262.818 73.4224 263.085 78.5678 262.765C83.7399 262.445 90.1384 261.165 90.1384 261.165Z" fill="#AFBEF9"/>
<path d="M29.2731 128.716C33.8587 128.876 38.3376 144.499 37.2978 157.136C36.1781 170.413 29.433 180.731 29.433 180.731C29.433 180.731 50.3347 198.993 53.1607 207.791C56.0133 216.589 51.1878 217.895 46.309 214.723C39.564 210.324 11.704 194.727 11.704 186.196C11.6506 173.319 14.6099 156.177 16.3695 146.632C18.1291 137.061 20.1553 128.37 29.2731 128.716Z" fill="#3A3A93"/>
<path d="M49.9613 205.818C54.4402 206.991 59.719 212.083 63.4514 218.508C67.1838 224.934 66.3041 227.12 66.3041 227.12L62.5716 225.867C62.5716 225.867 64.7044 226.373 63.4514 228.533C62.1984 230.692 60.0122 228.053 60.0122 228.053C60.0122 228.053 59.399 230.426 58.2793 230.906C57.1596 231.412 54.3336 228.879 53.5871 228.533C52.8406 228.186 54.5735 223.414 50.8411 223.281C47.1086 223.174 44.4426 221.628 42.3898 214.509C40.3636 207.391 45.2691 204.592 49.9613 205.818Z" fill="#FFC6B3"/>
<path d="M165.267 76.8619C165.267 76.8619 163.054 81.7407 153.457 80.9943C148.498 80.621 142.712 72.1163 140.473 73.1561C141.779 74.969 145.485 78.6748 149.511 81.7674C150.017 83.0204 146.791 90.2721 146.791 90.2721C146.791 90.2721 138.687 84.8067 135.514 79.1814C134.768 84.2735 147.298 97.9236 155.216 95.8441C166.36 92.8848 165.267 76.8619 165.267 76.8619Z" fill="white"/>
<path d="M67.6905 99.5765C67.6905 99.5765 65.4777 104.455 55.88 103.709C50.9212 103.336 45.1359 94.8309 42.8964 95.8707C44.2028 97.6836 47.9085 101.389 51.9343 104.482C52.4408 105.735 49.2149 112.987 49.2149 112.987C49.2149 112.987 41.4034 108.054 38.2575 102.429C37.511 107.521 49.7481 120.638 57.6396 118.559C68.7836 115.626 67.6905 99.5765 67.6905 99.5765Z" fill="white"/>
<path d="M102.322 197.34C102.322 197.34 98.9896 202.486 89.7118 201.766C84.913 201.392 79.021 195.207 76.8349 196.22C78.1146 197.98 81.9803 199.526 85.8727 202.512C86.3793 203.739 83.2334 210.724 83.2334 210.724C83.2334 210.724 75.6619 207.871 72.5959 202.432C71.8761 207.338 83.7399 218.135 91.3914 216.109C102.189 213.31 102.322 197.34 102.322 197.34Z" fill="white"/>
<path d="M356.421 150.018C356.421 150.018 363.38 153.564 367.006 158.363C370.631 163.135 372.604 176.758 373.031 179.851C373.457 182.943 378.496 206.298 378.496 206.298C378.496 206.298 385.694 211.31 389.8 213.07C393.906 214.829 406.596 221.814 406.596 221.814C406.596 221.814 404.57 226.24 403.263 228.906C401.957 231.572 401.451 234.158 401.451 234.158C401.451 234.158 367.912 228.293 363.673 224.134C359.434 219.948 343.651 158.363 343.651 158.363L356.421 150.018Z" fill="#AFBEF9"/>
<path d="M367.965 226.347C367.965 226.347 379.083 254.687 380.789 266.177C382.522 277.641 385.961 295.024 388.041 309.474C390.12 323.924 390.093 338.027 389.134 352.13C388.76 357.729 386.707 372.365 387.774 380.337C386.548 385.509 374.444 386.149 373.004 380.15C372.124 376.418 362.793 343.412 361.86 333.015C360.927 322.617 363.38 315.179 363.38 315.179C363.38 315.179 348.237 282.76 342.931 270.016C337.626 257.273 341.252 241.463 341.252 241.463L367.965 226.347Z" fill="#301121"/>
<path d="M373.217 378.764C373.217 378.764 372.818 382.177 371.751 385.749C370.685 389.321 371.991 394.307 371.991 394.307C371.991 394.307 372.764 396.493 376.07 397.16C379.163 397.773 381.642 397.026 381.642 397.026C381.642 397.026 384.681 400.679 388.627 403.505C392.599 406.304 401.344 408.49 403.717 408.117C407.556 407.53 409.609 404.545 409.315 402.598C409.022 400.679 404.49 395.32 400.784 393.001C398.385 391.508 392.893 386.415 391.24 384.656C388.52 381.723 386.521 378.497 386.521 378.497L373.217 378.764Z" fill="#301121"/>
<path d="M316.164 407.85C316.164 407.85 314.112 415.475 314.378 419.874C314.645 424.273 315.685 425.34 317.018 426.806C318.351 428.299 319.924 427.659 319.924 427.659C319.924 427.659 320.537 436.75 324.856 440.429C329.175 444.109 336.986 444.455 340.559 443.122C344.158 441.789 341.785 435.284 338.266 428.912C334.747 422.54 330.268 415.662 329.148 409.903C320.563 408.704 316.164 407.85 316.164 407.85Z" fill="#301121"/>
<path d="M328.161 238.104C328.161 238.104 322.723 245.809 318.377 259.352C315.338 268.87 315.818 291.691 315.818 291.691C315.818 291.691 315.045 314.166 316.484 321.951C317.924 329.736 317.817 331.308 317.817 331.308C317.817 331.308 311.579 349.944 312.538 371.992C313.498 394.04 315.285 409.823 315.285 409.823C315.285 409.823 316.511 413.982 322.163 414.569C327.308 415.102 331.094 411.53 331.094 411.53C331.094 411.53 340.558 364.874 344.051 354.236C347.543 343.599 348.85 331.335 348.85 331.335L355.995 278.947C355.995 278.947 370.151 269.696 362.9 246.395C358.368 231.759 328.161 238.104 328.161 238.104Z" fill="#4F213D"/>
<path d="M311.979 178.545C318.99 164.575 337.893 154.524 353.062 156.71C360.341 162.495 363.7 166.361 366.312 173.292C368.685 179.558 369.698 186.996 368.925 193.528C366.632 213.23 371.325 232.399 373.004 239.89C364.953 248.315 354.289 253.753 342.505 255.806C336.106 256.926 331.441 254.5 325.202 252.207C324.296 251.861 323.896 251.247 323.763 250.314C321.657 234.398 316.191 221.068 310.672 206.165C307.713 198.247 307.98 186.516 311.979 178.545Z" fill="#AFBEF9"/>
<path d="M348.69 148.045C348.69 148.045 347.25 157.643 350.769 160.975C354.289 164.308 354.315 171.133 347.277 173.426C338.746 176.198 332.72 170.066 327.388 165.801C329.681 160.922 330.801 160.949 330.801 147.272C330.774 136.181 348.69 148.045 348.69 148.045Z" fill="#F9BBA7"/>
<path d="M347.517 172.626L345.944 177.052L351.463 181.024C351.463 181.024 352.849 196.727 351.969 206.938C351.116 217.149 350.076 225.893 350.076 225.893L358.208 233.785L363.513 222.401C363.513 222.401 362.367 207.631 360.447 196.807C358.528 185.983 354.369 180.278 354.369 180.278C354.369 180.278 357.141 173.612 354.742 169.613C354.155 168.707 347.517 172.626 347.517 172.626Z" fill="#FF5E4C"/>
<path d="M324.162 160.975L310.539 171.746C310.539 171.746 309.659 196.354 309.926 204.352C310.166 212.35 314.671 219.388 315.178 226.347C315.684 233.305 319.95 237.304 314.351 254.34C305.474 281.427 299.048 355.703 299.048 355.703C299.048 355.703 301.315 365.061 319.044 370.313C336.773 375.565 360.9 371.006 360.9 371.006C360.9 371.006 364.1 350.451 366.126 321.817C372.871 334.295 377.376 362.475 377.376 362.475C377.376 362.475 383.908 360.795 390.36 355.356C396.812 349.917 398.251 340.853 398.251 340.853C398.251 340.853 388.894 289.665 385.908 279.907C382.922 270.176 374.364 244.449 373.031 228.666C372.578 223.334 371.245 183.29 366.339 173.346C361.407 163.401 349.01 151.084 349.01 151.084L349.516 153.191L364.26 190.915L360.927 214.723L335.466 180.917L325.335 170.68L324.162 160.975Z" fill="#DCE4FF"/>
<path d="M354.129 155.11C354.129 155.11 359.274 160.362 363.3 165.881C368.685 173.292 369.645 178.678 369.645 178.678L363.22 183.663L367.992 186.009C367.992 186.009 368.792 196.94 367.245 203.872C365.619 211.15 360.26 217.602 360.26 217.602C360.26 217.602 362.073 205.551 360.9 194.221C359.967 185.13 359.487 179.078 357.381 173.266C352.849 160.762 349.01 158.789 349.01 158.789L354.129 155.11Z" fill="#F8FCFF"/>
<path d="M291.024 234.771L306.7 262.978L347.064 239.97L331.387 211.79L328.428 213.363L291.024 234.771Z" fill="#EF4335"/>
<path d="M288.064 236.344L303.767 264.578L344.158 241.623L328.428 213.363L288.064 236.344Z" fill="#FF5E4C"/>
<path d="M330.774 212.11L346.131 239.597L344.424 240.503L329.041 213.043L330.774 212.11Z" fill="white"/>
<path d="M330.534 213.336L335.573 222.401L341.465 219.202L336.666 210.11L330.534 213.336Z" fill="#4646A5"/>
<path d="M333.44 219.975L347.65 220.668L341.758 234.931L333.44 219.975Z" fill="white"/>
<path d="M323.096 247.915C323.096 247.915 327.468 247.915 330.534 249.381C332.134 248.208 335.52 246.555 335.52 246.555C335.52 246.555 337.786 253.247 333.44 257.912C329.095 262.578 323.576 259.912 320.243 257.086C316.911 254.26 323.096 247.915 323.096 247.915Z" fill="#FFC9B6"/>
<path d="M313.952 168.867C313.952 168.867 306.22 171.826 300.728 182.304C295.396 192.461 288.624 212.457 286.705 220.641C284.145 231.679 284.599 235.624 286.465 238.61C289.744 243.916 294.41 247.728 300.408 251.381C310.272 257.379 319.257 258.899 319.257 258.899C319.257 258.899 326.002 257.726 326.002 246.528C324.296 244.849 321.15 245.062 316.111 240.477C309.713 234.638 304.914 229.572 304.914 229.572C304.914 229.572 312.539 218.828 319.977 206.991C330.108 183.343 313.952 168.867 313.952 168.867Z" fill="#AFBEF9"/>
<path d="M330.481 156.416C330.481 156.416 332.134 162.228 336.533 165.534C341.865 169.533 351.889 170.2 351.889 172.946C348.983 172.946 348.423 173.106 348.423 175.212C348.423 179.131 347.277 180.038 347.277 180.038C347.277 180.038 340.052 177.985 334.827 175.799C328.295 173.079 325.335 164.041 325.335 164.041C325.335 164.041 326.588 156.043 330.481 156.416Z" fill="#DCE4FF"/>
<path d="M351.889 156.71C351.889 156.71 356.128 161.295 357.941 163.428C359.754 165.534 358.687 169.453 359.594 171.186C360.5 172.946 360.9 174.119 360.9 174.119C360.9 174.119 357.114 173.346 356.395 171.186C355.675 169 351.889 172.946 351.889 172.946L349.223 170.76C349.223 170.76 353.249 168.174 351.889 165.428C350.529 162.682 348.263 159.056 348.263 159.056L351.889 156.71Z" fill="#DCE4FF"/>
<path d="M333.227 124.371C338.532 118.505 352.476 116.106 357.461 124.691C361.22 131.142 361.38 142.633 360.367 147.912C358.234 159.003 349.117 165.614 338.639 157.083C328.615 148.978 324.082 134.475 333.227 124.371Z" fill="#FFC9B6"/>
<path d="M321.47 134.981C320.563 129.356 323.576 125.224 328.668 125.117C328.135 120.851 330.694 116.639 334.693 114.586C341.278 111.174 349.09 113.627 355.835 115.546C357.781 114.64 362.58 111.734 363.326 114.213C363.86 115.999 362.82 117.732 361.833 119.199C363.78 118.825 367.619 117.172 369.325 118.479C373.324 121.545 366.419 126.983 362.873 128.61C360.34 129.756 357.275 130.529 354.262 130.583C354.529 130.956 354.795 131.356 355.008 131.782C355.355 132.449 355.168 133.195 354.529 133.622C351.863 135.355 347.01 136.075 343.891 134.342C343.838 137.141 342.931 139.967 340.719 141.647C339.705 142.42 337.653 143.14 335.84 143.14C335.36 145.672 333.04 150.178 330.828 151.084C328.082 148.365 322.136 139.061 321.47 134.981Z" fill="#301121"/>
<path d="M338.692 144.153C338.692 144.153 335.626 139.514 332.907 143.033C330.188 146.552 335.76 149.991 335.76 149.991L338.692 144.153Z" fill="#FFC9B6"/>
<path d="M329.841 169.213C335.52 177.611 341.758 184.383 350.156 196.62C354.608 203.099 361.434 214.963 361.434 214.963C361.434 214.963 348.743 208.164 345.917 205.845C340.932 201.766 335.44 195.474 335.44 195.474L338.612 187.849L329.681 187.103C329.681 187.103 320.51 176.812 320.99 168.227C321.336 162.068 322.936 160.815 324.909 159.056C326.562 157.59 327.362 158.336 327.362 158.336C327.362 158.336 327.282 165.428 329.841 169.213Z" fill="#F8FCFF"/>
<path d="M361.46 218.855C361.46 218.855 359.567 242.876 359.381 252.554C359.194 262.231 364.446 279.641 364.899 291.078C365.352 302.515 365.912 319.631 365.912 319.631C365.912 319.631 368.125 306.461 367.592 291.851C367.059 277.215 361.673 258.446 362.207 248.235C362.766 238.05 362.633 224.56 361.46 218.855Z" fill="#AFBEF9"/>
<path d="M338.616 190.279L334.922 192.412L337.054 196.106L340.749 193.973L338.616 190.279Z" fill="#301121"/>
<path d="M343.624 189.773L332.011 196.479L336.45 204.167L348.063 197.462L343.624 189.773Z" fill="#AFBEF9"/>
<path d="M360.847 144.366C360.847 144.366 358.714 149.085 349.437 148.365C344.638 147.992 338.932 141.22 336.746 142.233C338.026 143.993 341.732 146.126 345.597 149.111C346.104 150.311 342.958 157.323 342.958 157.323C342.958 157.323 336.24 151.618 332.827 147.192C332.107 152.097 343.465 164.734 351.089 162.708C361.887 159.882 360.847 144.366 360.847 144.366Z" fill="white"/>
<path d="M501 207.231L487.856 199.34L478.765 218.882L489.883 229.226L501 207.231Z" fill="#AFBEF9"/>
<path d="M396.065 223.92C396.065 223.92 424.725 230.372 453.385 221.441C482.044 212.51 487.856 199.366 487.856 199.366C487.856 199.366 485.804 277.428 461.276 353.623C432.563 442.776 396.092 483.353 396.092 483.353V223.92H396.065Z" fill="#AFBEF9"/>
<path d="M396.065 223.921C396.065 223.921 367.405 263.458 338.745 287.612C310.086 311.766 281.532 318.458 281.532 318.458C281.532 318.458 280.626 398.599 308.113 442.002C314.298 451.76 322.136 459.198 330.587 464.904V464.93L330.881 465.09C333.36 466.743 335.893 468.263 338.426 469.623L351.942 477.727L353.515 476.208C375.857 483.993 396.065 483.326 396.065 483.326L409.209 231.812L396.065 223.921Z" fill="#94A8EA"/>
<path d="M409.235 231.812C409.235 231.812 380.575 271.349 351.915 295.504C323.256 319.658 294.702 326.35 294.702 326.35C294.702 326.35 293.796 406.491 321.283 449.894C348.796 493.297 409.235 491.217 409.235 491.217V231.812Z" fill="#AFBEF9"/>
<path d="M409.235 231.812C409.235 231.812 437.895 238.264 466.555 229.333C495.215 220.401 501.027 207.258 501.027 207.258C501.027 207.258 498.974 285.319 474.446 361.515C445.733 450.667 409.262 491.244 409.262 491.244V231.812H409.235Z" fill="#DCE4FF"/>
<path opacity="0.8" d="M409.129 260.072C409.129 260.072 386.307 291.558 363.486 310.807C340.665 330.056 317.897 335.388 317.897 335.388C317.897 335.388 317.177 399.239 339.065 433.818C360.953 468.396 409.129 466.717 409.129 466.717V260.072Z" fill="white"/>
<path d="M409.129 260.072C409.129 260.072 431.95 265.217 454.771 258.099C477.592 250.981 482.231 240.503 482.231 240.503C482.231 240.503 480.578 302.702 461.063 363.381C438.188 434.404 409.129 466.717 409.129 466.717V260.072Z" fill="white"/>
<path d="M422.139 392.254L401.504 404.145V320.191L422.139 308.274V392.254Z" fill="#4646A5"/>
<path d="M443.307 324.27V351.784L380.335 388.148V360.635L443.307 324.27Z" fill="#4646A5"/>
<path d="M404.25 226.613C407.396 228.746 413.208 232.718 415.474 235.891C417.74 239.09 425.098 237.944 425.525 230.319C425.951 222.667 419.26 217.522 411.528 217.362C403.797 217.202 401.131 224.48 404.25 226.613Z" fill="#FFC9B6"/>
</g>
<defs>
<clipPath id="clip0">
<rect width="501" height="509" fill="white"/>
</clipPath>
</defs>
</svg>
