<svg width="548" height="578" viewBox="0 0 548 578" fill="none" xmlns="http://www.w3.org/2000/svg">
<g clip-path="url(#clip0)">
<path d="M274.28 11.7799L256.09 1.19989C253.95 -0.270106 250.86 -0.440106 247.26 0.979894C192.55 22.6199 160.1 18.4699 143.59 12.4499C135.77 9.59989 123.67 16.5899 115.85 28.4699C99.3401 53.5499 66.8901 95.1699 12.1801 136.71C5.3701 141.88 0.370098 150.62 0.190098 157.64C-0.629902 189.75 0.0300961 274.81 28.3901 302.01C31.3401 304.84 34.5201 307.27 37.8301 309.39L37.8101 309.4L38.4201 309.76C39.4001 310.37 40.4001 310.95 41.4001 311.51L57.9901 321.22L56.4701 317.65C81.0901 324.72 108.26 320.19 121.52 317.09C126.84 315.85 132.6 312.53 137.92 307.62C156.67 290.34 203.2 243.89 231.05 185C256.34 131.53 259.6 57.4699 259.43 19.9799L274.28 11.7799Z" fill="#699FE0"/>
<path d="M265.54 11.6299C210.83 33.2699 178.38 29.1199 161.87 23.0999C154.05 20.2499 141.95 27.2399 134.13 39.1199C117.62 64.1999 85.1701 105.83 30.4601 147.36C23.6501 152.53 18.6501 161.27 18.4701 168.29C17.6501 200.4 18.3101 285.46 46.6701 312.66C74.5201 339.38 121.05 332.11 139.8 327.73C145.12 326.49 150.88 323.17 156.2 318.26C174.95 300.98 221.48 254.53 249.33 195.64C277.68 135.69 278.35 49.8699 277.53 18.7099C277.35 11.8999 272.35 8.92993 265.54 11.6299Z" fill="#E1F4FF"/>
<path d="M256.76 23.5599C206.14 43.5799 176.11 39.7399 160.84 34.1699C153.61 31.5299 142.41 37.9999 135.17 48.9899C119.9 72.1999 89.8702 110.71 39.2502 149.14C32.9502 153.92 28.3202 162.01 28.1602 168.51C27.3902 198.22 28.0002 276.92 54.2402 302.09C80.0102 326.82 123.06 320.08 140.41 316.04C145.34 314.89 150.66 311.82 155.59 307.28C172.94 291.29 215.99 248.31 241.76 193.83C268 138.36 268.61 58.9499 267.85 30.1199C267.69 23.8099 263.06 21.0699 256.76 23.5599Z" fill="#94CCFF"/>
<path d="M241.76 193.82C215.98 248.3 172.94 291.3 155.58 307.28C150.66 311.81 145.33 314.89 140.41 316.04C125.03 319.63 89.4302 325.32 63.6002 309.32C60.3002 307.27 57.1502 304.88 54.2402 302.08C28.0002 276.92 27.4002 198.22 28.1502 168.51C28.3202 162.01 32.9502 153.93 39.2502 149.14C89.8702 110.71 119.9 72.1999 135.16 48.9899C142.4 37.9999 153.6 31.5299 160.83 34.1799C176.11 39.7399 206.12 43.5799 256.76 23.5599C258.06 23.0499 259.28 22.7599 260.4 22.6799C264.77 22.3499 267.72 25.1099 267.85 30.1299C268.61 58.9499 268 138.36 241.76 193.82Z" fill="white"/>
<path d="M235.17 190.29C209.39 244.77 166.35 287.76 149 303.74C144.06 308.27 138.75 311.35 133.82 312.5C119.71 315.79 88.6102 320.86 63.6202 309.33C60.3202 307.28 57.1702 304.89 54.2602 302.09C28.0002 276.92 27.4002 198.22 28.1502 168.51C28.3202 162.01 32.9502 153.93 39.2502 149.14C89.8702 110.71 119.9 72.1999 135.16 48.9899C142.4 37.9999 153.6 31.5299 160.83 34.1799C176.11 39.7399 206.12 43.5799 256.76 23.5599C258.06 23.0499 259.28 22.7599 260.4 22.6799C260.92 23.7599 261.22 25.0699 261.26 26.5899C262.02 55.4099 261.4 134.81 235.17 190.29Z" fill="#94CCFF"/>
<path opacity="0.59" d="M235.16 190.29C209.38 244.77 166.35 287.76 148.99 303.73C148.9 303.82 148.78 303.92 148.69 304V36.0899C153.07 33.7199 157.4 32.9299 160.83 34.1799C176.11 39.7399 206.13 43.5799 256.76 23.5599C258.06 23.0499 259.27 22.7499 260.4 22.6699C260.92 23.7599 261.21 25.0699 261.25 26.5899C262.01 55.4199 261.4 134.82 235.16 190.29Z" fill="#699FE0"/>
<path d="M122.84 128.48C124.04 130.42 122.88 134.18 120.25 136.9C117.62 139.61 114.52 140.24 113.33 138.31C112.13 136.37 113.29 132.61 115.92 129.89C118.54 127.18 121.64 126.55 122.84 128.48Z" fill="#AA3747"/>
<path d="M128.9 141.36L120.98 149.55L116.48 136.46L120.74 132.05L128.9 141.36Z" fill="#AA3747"/>
<path d="M173.1 101.71C172.09 105 169.08 108.11 166.37 108.66C163.67 109.21 162.29 106.99 163.3 103.7C164.31 100.41 167.32 97.2999 170.03 96.7499C172.74 96.2099 174.12 98.4299 173.1 101.71Z" fill="#AA3747"/>
<path d="M165.81 121.8L157.65 123.46L165.57 104.61L169.96 103.71L165.81 121.8Z" fill="#AA3747"/>
<path d="M207.06 119.24C204.43 121.95 201.33 122.58 200.14 120.65C198.94 118.71 200.1 114.95 202.73 112.23C205.36 109.52 208.46 108.89 209.65 110.82C210.84 112.76 209.68 116.53 207.06 119.24Z" fill="#AA3747"/>
<path d="M190.68 134.77L187.06 128.93L202.76 115.36L204.7 118.51L190.68 134.77Z" fill="#AA3747"/>
<path d="M204.81 170.81C202.11 171.36 200.73 169.14 201.74 165.85C202.75 162.56 205.76 159.45 208.47 158.9C211.17 158.35 212.55 160.57 211.54 163.86C210.52 167.15 207.51 170.26 204.81 170.81Z" fill="#AA3747"/>
<path d="M188.93 172.68L191.99 162.76L206.27 162.43L204.62 167.77L188.93 172.68Z" fill="#AA3747"/>
<path d="M167.67 226.2C166.47 224.26 167.63 220.49 170.26 217.78C172.89 215.07 175.99 214.44 177.18 216.37C178.38 218.31 177.22 222.08 174.59 224.79C171.97 227.51 168.87 228.14 167.67 226.2Z" fill="#AA3747"/>
<path d="M161.61 213.32L169.53 205.13L174.04 218.23L169.77 222.64L161.61 213.32Z" fill="#AA3747"/>
<path d="M117.41 252.98C118.42 249.69 121.43 246.58 124.14 246.03C126.84 245.48 128.22 247.7 127.21 250.99C126.2 254.28 123.19 257.39 120.48 257.94C117.77 258.48 116.39 256.26 117.41 252.98Z" fill="#AA3747"/>
<path d="M124.7 232.89L132.86 231.23L124.94 250.08L120.55 250.98L124.7 232.89Z" fill="#AA3747"/>
<path d="M83.4499 235.44C86.0799 232.73 89.1799 232.1 90.3699 234.03C91.5699 235.97 90.4099 239.74 87.7799 242.45C85.1499 245.16 82.0499 245.79 80.8599 243.86C79.6699 241.93 80.8299 238.16 83.4499 235.44Z" fill="#AA3747"/>
<path d="M99.8398 219.92L103.45 225.76L87.7498 239.32L85.8098 236.18L99.8398 219.92Z" fill="#AA3747"/>
<path d="M85.6999 183.88C88.3999 183.33 89.7799 185.55 88.7699 188.84C87.7599 192.13 84.7499 195.24 82.0399 195.79C79.3399 196.34 77.9599 194.12 78.9699 190.83C79.9899 187.54 82.9999 184.43 85.6999 183.88Z" fill="#AA3747"/>
<path d="M101.58 182.01L98.52 191.93L84.24 192.26L85.89 186.92L101.58 182.01Z" fill="#AA3747"/>
<path d="M226.76 121.83C226.7 121.79 226.64 121.76 226.58 121.72L226.38 121.6C226.38 121.6 226.37 121.61 226.36 121.62C224.91 120.91 222.95 120.97 220.78 121.95C216.86 123.73 213.41 127.66 211.62 131.72L199.49 137.34C196.54 138.71 194 138.16 193.18 135.78C192.61 134.15 191.9 132.64 191.07 131.2C191.13 129.26 191.48 118.69 191.48 118.69C191.48 118.69 197.17 108.32 197.42 107.9C197.67 107.48 204.48 96.7398 205.11 95.9398C205.74 95.1498 208.76 86.9698 208.76 86.9698L203.05 83.5998C202.98 83.5598 202.92 83.5198 202.85 83.4798L202.79 83.4498L202.78 83.4598C199.08 81.6098 192.85 85.2398 189.2 91.2598C186.96 94.9498 186.26 98.6198 187.02 101.14L177.37 114.38C175.02 117.61 171.8 119.65 169.16 119.74C164.71 119.89 159.91 120.93 154.93 122.81C151.88 123.97 149.61 122.71 149.19 119.87L148.75 116.84L149.72 107.74L155.32 97.7098L149.81 94.4498C149.81 94.4498 149.8 94.4498 149.8 94.4398L149.71 94.3798L149.7 94.3898C148.39 93.6198 146.59 93.5598 144.58 94.3298C138.45 96.6598 133.2 104.46 133.4 110.18C133.47 112.21 134.22 113.65 135.42 114.45L137.88 115.88L136.57 128.11C136.23 131.25 134.22 134.96 131.37 137.43C129.08 139.42 126.8 141.57 124.57 143.88C122.11 146.42 119.79 149.06 117.61 151.77C115.02 154.99 111.65 156.94 109.17 156.48L105.51 155.8C105.48 154.24 103.49 151.24 103.49 151.24L98.23 148.14C98.15 148.08 98.06 148.04 97.98 147.99L97.56 147.74L97.54 147.76C97.1 147.56 96.63 147.4 96.08 147.33C92.97 146.99 88.71 149.44 85.62 153.39C80.61 159.81 80.33 166.93 84.55 168.43L89.32 171.3L97.15 168.35L100.84 170.86C102.71 172.13 102.89 175.25 101.46 178.72C99.04 184.57 97.3 190.37 96.32 195.92C95.72 199.32 93.15 203.07 90.07 205.27L78.7 213.37C76.6 211.33 72.58 211.79 68.27 215.5C65.04 218.29 62.51 222.5 61.86 226.17C61.32 229.22 61.98 231.39 63.38 232.56L63.44 232.6C63.72 232.82 64.03 233 64.36 233.15L69.4 236.15L83.2 224.63C83.2 224.63 94.9 219.67 96.08 219.11C96.31 219 96.74 218.88 97.27 218.76C97.29 218.81 97.32 218.85 97.34 218.9C98 220.81 98.84 222.6 99.86 224.25C100.98 226.06 102.28 227.63 103.73 228.98C105.46 230.58 105.46 233.95 103.57 237.51L96.5 250.87C92.99 252.14 89.15 255.62 86.87 260.25C84.73 264.6 84.72 268.86 86.9 270.69C87.23 270.97 87.6 271.17 87.99 271.34L93.11 274.43C93.11 274.43 104.75 259.59 104.79 259.47C104.83 259.34 110.31 249.31 110.31 249.31L116.46 238.69L125.7 234.97C125.7 234.97 139.75 232.46 139.87 232.46C139.92 232.46 140.57 233.49 141.3 234.69C141.31 234.74 141.33 234.78 141.33 234.83L142.86 245.31C139.61 249.28 137.74 254.39 138.97 257.99C139.27 258.87 139.78 259.54 140.43 260.04L140.41 260.06L140.56 260.15C140.69 260.24 140.83 260.32 140.97 260.39L146.24 263.53L154.96 257.06C154.96 257.06 155.15 254.61 155.41 251.2C156.55 248.94 157.2 246.6 157.12 244.53C157.07 243.21 156.73 242.15 156.17 241.34C156.61 235.55 157.01 230.36 157.01 230.26C157.01 230.05 158.81 220.2 158.81 220.2L178.8 198.5C179.71 198.2 180.58 198.08 181.36 198.23L190.64 199.94C190 203.29 190.82 206.02 193.11 207L193.1 207.02L200.02 211.13C200.02 211.13 206.47 200.45 207.01 200.08C207.55 199.7 213.95 195.02 213.95 195.02L212.35 189.98L207.27 187.02C206.9 186.7 206.48 186.45 205.99 186.27C203.59 185.42 200.33 186.6 197.37 189.06L190.73 184.54C190.71 182.28 190.76 180 190.72 179.71C190.65 179.25 195.51 158.97 196.96 152.93C197.88 151.71 198.96 150.6 200.13 149.71L207.94 145.39C207.94 145.39 211.95 144 216.21 142.43C217.19 142.26 218.26 141.86 219.37 141.24C222.9 139.89 225.93 138.62 226.17 138.16C226.76 137.03 230.85 132.18 231.06 131.47C231.27 130.76 232.44 125.2 232.44 125.2L226.76 121.83Z" fill="#AA3747"/>
<path d="M226.27 125.21C222.35 126.99 218.9 130.92 217.11 134.98L204.98 140.6C202.03 141.97 199.49 141.42 198.67 139.04C198.01 137.13 197.17 135.34 196.15 133.69C195.03 131.88 193.73 130.31 192.28 128.96C190.55 127.36 190.55 123.99 192.44 120.43L199.51 107.07C203.02 105.8 206.86 102.32 209.14 97.6898C211.28 93.3398 211.29 89.0798 209.11 87.2498C205.58 84.2798 198.63 88.0198 194.69 94.5098C192.45 98.1998 191.75 101.87 192.51 104.39L182.86 117.63C180.51 120.86 177.29 122.9 174.65 122.99C170.2 123.14 165.4 124.18 160.42 126.06C157.37 127.22 155.1 125.96 154.68 123.12L153.15 112.64C156.4 108.67 158.27 103.56 157.04 99.9598C156.12 97.2598 153.36 96.3198 150.07 97.5798C143.94 99.9098 138.69 107.71 138.89 113.43C139 116.64 140.82 118.4 143.44 118.44L142.06 131.36C141.72 134.5 139.71 138.21 136.86 140.68C134.57 142.67 132.29 144.82 130.06 147.13C127.6 149.67 125.28 152.31 123.1 155.02C120.51 158.24 117.14 160.19 114.66 159.73L105.38 158.02C106.14 154.07 104.88 150.96 101.56 150.6C98.4499 150.26 94.1899 152.71 91.0999 156.66C86.0899 163.08 85.8099 170.2 90.0299 171.7C92.4299 172.55 95.6899 171.37 98.6499 168.91L106.32 174.13C108.19 175.4 108.37 178.52 106.94 181.99C104.52 187.84 102.78 193.64 101.8 199.19C101.2 202.59 98.6299 206.34 95.5499 208.54L84.1799 216.64C82.0799 214.6 78.0599 215.06 73.7499 218.77C70.5199 221.56 67.9899 225.77 67.3399 229.44C66.1299 236.27 70.8999 238.76 76.7399 235.19C80.0199 233.18 82.8199 229.75 84.3799 226.23L96.5099 220.61C99.4599 219.24 102 219.79 102.82 222.17C103.48 224.08 104.32 225.87 105.34 227.52C106.46 229.33 107.76 230.9 109.21 232.25C110.94 233.85 110.94 237.22 109.05 240.78L101.98 254.14C98.4699 255.41 94.6299 258.89 92.3499 263.52C90.2099 267.87 90.1999 272.13 92.3799 273.96C95.9099 276.93 102.86 273.19 106.8 266.7C109.04 263.01 109.74 259.34 108.98 256.82L118.63 243.58C120.98 240.35 124.2 238.31 126.84 238.22C131.29 238.07 136.09 237.03 141.07 235.15C144.12 233.99 146.39 235.25 146.81 238.09L148.34 248.57C145.09 252.54 143.22 257.65 144.45 261.25C145.37 263.95 148.13 264.89 151.42 263.64C157.55 261.31 162.8 253.51 162.6 247.79C162.49 244.58 160.67 242.82 158.05 242.78L159.43 229.86C159.77 226.72 161.78 223.01 164.63 220.54C166.92 218.55 169.2 216.4 171.43 214.09C173.89 211.55 176.21 208.91 178.39 206.2C180.98 202.98 184.35 201.03 186.83 201.49L196.11 203.2C195.35 207.15 196.61 210.26 199.93 210.62C203.04 210.96 207.3 208.51 210.39 204.56C215.4 198.14 215.68 191.02 211.46 189.52C209.06 188.67 205.8 189.85 202.84 192.31L195.17 187.09C193.3 185.82 193.12 182.7 194.55 179.23C196.97 173.38 198.71 167.58 199.69 162.03C200.29 158.63 202.86 154.88 205.94 152.68L217.31 144.58C219.02 146.24 222.01 146.25 225.4 144.18C231.17 140.65 235.52 132.71 234.06 127.61C233.15 124.47 229.98 123.52 226.27 125.21Z" fill="#CC4551"/>
<path d="M180.19 137.4C182.97 141.89 180.28 150.64 174.18 156.93C168.08 163.23 160.89 164.69 158.11 160.2C155.33 155.71 158.02 146.96 164.12 140.67C170.22 134.37 177.41 132.91 180.19 137.4Z" fill="#AA3747"/>
<path d="M176.32 181.56C179.1 186.05 176.41 194.8 170.31 201.09C164.21 207.39 157.02 208.85 154.24 204.36C151.46 199.87 154.15 191.12 160.25 184.83C166.35 178.53 173.55 177.07 176.32 181.56Z" fill="#AA3747"/>
<path d="M132.73 201.92C134.38 204.6 132.78 209.81 129.15 213.56C125.52 217.31 121.23 218.18 119.58 215.51C117.93 212.83 119.53 207.62 123.16 203.87C126.79 200.12 131.07 199.25 132.73 201.92Z" fill="#AA3747"/>
<path d="M190.85 157.76C192.5 160.44 190.9 165.65 187.27 169.4C183.64 173.15 179.35 174.02 177.7 171.35C176.05 168.67 177.65 163.46 181.28 159.71C184.91 155.96 189.2 155.09 190.85 157.76Z" fill="#AA3747"/>
<path d="M146.32 167C148.28 170.17 146.38 176.35 142.08 180.79C137.78 185.24 132.7 186.27 130.74 183.1C128.78 179.93 130.68 173.75 134.98 169.31C139.28 164.86 144.36 163.83 146.32 167Z" fill="#AA3747"/>
<path d="M158.53 175.27C159.44 176.73 158.56 179.59 156.57 181.64C154.58 183.69 152.24 184.17 151.33 182.71C150.42 181.25 151.3 178.39 153.29 176.34C155.28 174.28 157.63 173.81 158.53 175.27Z" fill="#AA3747"/>
<path d="M154.56 215.24C155.47 216.7 154.59 219.56 152.6 221.61C150.61 223.66 148.27 224.14 147.36 222.68C146.45 221.22 147.33 218.36 149.32 216.31C151.31 214.25 153.65 213.78 154.56 215.24Z" fill="#AA3747"/>
<path d="M152.29 147.08C153.2 148.54 152.32 151.4 150.33 153.45C148.34 155.5 146 155.98 145.09 154.52C144.18 153.06 145.06 150.2 147.05 148.15C149.04 146.09 151.39 145.61 152.29 147.08Z" fill="#AA3747"/>
<path d="M123.98 190.07C124.89 191.53 124.01 194.39 122.02 196.44C120.03 198.49 117.69 198.97 116.78 197.51C115.87 196.05 116.75 193.19 118.74 191.14C120.73 189.09 123.08 188.61 123.98 190.07Z" fill="#AA3747"/>
<path d="M44.3801 140.1L213.04 245.01L238.49 208.73L79.2901 109.7L44.3801 140.1Z" fill="#E1F4FF"/>
<path d="M324.18 173.1L306.35 215.44L273.01 235.46L281.84 245.63C281.84 245.63 310.21 237.48 317.88 231.61C326.94 224.67 344.96 194.84 344.96 194.84L324.18 173.1Z" fill="#D3EDF4"/>
<path d="M391.02 429.53L352.28 437.12C352.28 437.12 349.64 439.65 349.25 440.71C348.6 442.44 349.64 445.67 354.04 446.82C358.44 447.97 362.92 446.86 366.65 445.35C370.39 443.85 374.05 441.34 376.28 440.18C377.54 439.52 378.95 439.12 379.96 438.88L381.84 439.57C381.84 439.57 383.43 439.32 385.65 438.41C387.97 437.46 390.93 436.08 391.27 434.59C391.4 433.99 391.02 429.53 391.02 429.53Z" fill="#0E0C18"/>
<path d="M374.49 417.45C374.49 417.45 372.12 418.43 366.61 423.98C361.1 429.53 350.86 435.43 349.27 438.67C347.91 441.45 349.3 444.22 354.21 445.69C359.2 447.19 367.27 443.62 372.28 440.23C377.29 436.84 388.44 434.86 390.49 431.42C392.51 428.03 390.01 422.24 389.07 420.81C388.14 419.37 386.13 414.72 374.49 417.45Z" fill="white"/>
<path d="M389.09 468.58L430.96 457.31C430.96 457.31 431.14 460.27 430.96 460.98C430.78 461.69 423.91 465.2 421.64 465.09L420.67 464.84C419.66 465.55 417.98 466.71 416.29 467.81C413.63 469.55 409.72 471.94 406.09 473.13C404.25 473.73 398.24 475.7 393.27 474.52C389.3 473.6 388.3 470.32 389.09 468.58Z" fill="#0E0C18"/>
<path d="M427.39 441.71C427.39 441.71 431.15 443.28 431.45 455.62C431.45 455.62 431.37 457.66 430.07 458.71C428.77 459.77 424.29 460.91 421.2 462.78C418.11 464.65 410.21 470.84 402.64 472.63C395.07 474.42 390.67 472.47 389.29 470.92C387.91 469.37 388.64 466.04 391.49 464.08C394.34 462.13 406.82 450.25 408.74 447.59C411.23 444.14 414.63 441.95 414.96 441.38C415.27 440.81 424.7 443.01 427.39 441.71Z" fill="white"/>
<path d="M387.37 407.48C387.37 407.48 386.44 416.91 386.69 419.51C386.94 422.11 375.81 423.68 372.77 420.21C372.77 420.21 372.28 414.19 372.17 410.06" fill="#F2CFA4"/>
<path d="M410.16 263.74C410.08 270.57 409.45 274.65 408.52 278.74C407.73 282.22 401.91 285.03 400.74 290.28C400.46 291.61 400.03 294.18 399.52 297.71C398.27 306.7 396.55 321.91 395.27 338.44C395.33 341.92 395.33 345.52 395.27 349.22C395.16 353.55 394.95 357.98 394.67 362.4C394.34 367.74 393.88 373.05 393.39 378.16C391.41 398.47 388.62 415.25 388.62 415.25C388.62 415.25 385.63 417.76 380.1 417.65C377.43 417.62 374.16 416.95 370.33 415.12C370.33 415.12 368.04 387.56 366.54 355.44C366.22 348.75 365.94 341.86 365.72 334.99C364.23 288.87 359.54 244.62 359.65 238.52C359.76 229.1 403.35 239.31 403.35 239.31C403.35 239.31 410.4 251.06 410.16 263.74Z" fill="#2D166D"/>
<path d="M394.68 362.39C394.35 367.73 393.89 373.04 393.4 378.15L393.27 378.2C393.27 378.2 389.54 380.22 381.3 378.79C381.3 378.79 380.89 404.81 380.1 417.64C377.43 417.61 374.16 416.94 370.33 415.11C370.33 415.11 368.04 387.55 366.54 355.43C373.11 354.45 382.03 354.12 383.92 355.27C385.6 356.29 390.76 359.73 394.68 362.39Z" fill="#180C51"/>
<path d="M399.53 297.7C398.28 306.69 396.56 321.9 395.27 338.43C395.35 341.91 395.35 345.51 395.27 349.22L395.23 349.34L393.28 286.56L399.53 297.7Z" fill="#0E0C18"/>
<path d="M428.11 431.04C428.11 431.04 427.18 440.47 427.43 443.07C427.68 445.67 416.55 447.24 413.51 443.77C413.51 443.77 413.02 437.75 412.91 433.62" fill="#F2CFA4"/>
<path d="M435.2 304.7C434.79 317.94 432.88 345.11 433.64 351.88C433.96 354.68 434.56 360.86 434.83 368.36C434.94 371.93 434.99 375.82 434.91 379.77C434.86 381.49 434.8 383.22 434.7 384.95C433.93 398.56 430.04 437.8 430.04 437.8C430.04 437.8 427.84 439.62 423.88 440.27C420.7 440.81 416.39 440.59 411.16 438.07C411.16 438.07 407.71 408.18 403.78 374.55C398.99 333.54 393.51 286.98 392.69 282.33C388.57 271.2 390.07 260.88 390.07 254.86C390.07 248.85 433.09 253.03 433.09 253.03C433.09 253.03 440.11 264.8 439.89 277.5C439.65 290.1 437.82 293.2 435.2 304.7Z" fill="#2D166D"/>
<path d="M434.9 379.77C434.9 379.77 431.47 383.06 424.09 384.12C424.09 384.12 423.06 423.22 423.87 440.27C420.69 440.81 416.38 440.59 411.15 438.07C411.15 438.07 407.7 408.18 403.77 374.55C406.33 371.1 410.74 365.84 414.09 365.67C417.65 365.5 428.71 367.3 434.83 368.36C434.93 371.94 434.98 375.82 434.9 379.77Z" fill="#180C51"/>
<path d="M427.54 229.54C423.3 215.39 414.63 191.74 404.14 177.5C393.65 163.26 372.9 159.08 372.9 159.08C366.88 157.38 347.5 155.88 339.1 157.96C330.7 160.04 322.13 167.7 324.61 177.98C327.09 188.26 348.17 217.3 352.61 231.61C354.12 236.47 358.44 248.37 360.73 262.03C362.65 273.49 362.7 281.04 361.94 308.5C361.18 335.96 362 358.08 362 358.08C362 358.08 376.7 369.14 396.4 377.15C407.14 381.52 422.13 382.97 432.25 378.8C443.06 374.35 446.29 369.09 446.29 369.09C446.29 369.09 447.78 296.81 440.1 264.08C439.04 259.56 429.55 236.24 427.54 229.54Z" fill="white"/>
<path d="M344.68 168.75C344.68 168.75 340.15 175.4 345.58 178.55L347.01 172.25L343.97 170.49" fill="#D5AB80"/>
<path d="M350.56 146.15C350.56 146.15 354.88 151.92 358.89 156.51C361.37 159.35 364.89 161.4 365.08 163.46C365.65 169.6 353.45 182.46 345.59 178.54C344.64 174.64 341.01 172.07 337.33 168.19L350.56 146.15Z" fill="#E2B888"/>
<path d="M348.8 156.67L346.63 157.39C346.63 157.39 346.2 155.97 345.52 154.52L347.88 150.58C348.03 153.3 348.8 156.67 348.8 156.67Z" fill="#E2B888"/>
<path d="M315.78 145.69C315.78 145.69 317.01 156.62 321.32 165.94C325.63 175.25 326.77 177.32 331.09 178.21C335.41 179.1 339 178.53 344.72 172.85C350.44 167.17 352.58 159.44 352.58 159.44C352.58 159.44 353.66 159.86 355.46 156.68C358.27 151.7 358.54 149.46 357.32 143.77C356.1 138.09 353.15 131.25 347.14 124.77C341.13 118.3 328.06 123.58 322.58 128.05C317.09 132.53 315.59 139.09 315.78 145.69Z" fill="#F2CFA4"/>
<path d="M357.68 155.12C357.25 154.62 357.21 154.57 356.8 154.07C357.3 151.61 356.98 148.46 355.09 146.52C351.93 143.33 348.16 146.2 347.89 148.92C347.84 149.41 347.84 149.99 347.89 150.6C348.03 153.32 348.59 155.63 348.59 155.63L346.64 157.4C346.64 157.4 346.21 155.98 345.53 154.53C344.92 153.2 344.08 151.84 343.15 151.55C341.18 150.99 337.44 151.29 335.06 146.33C335.06 146.33 330.16 150.05 324.2 151.32C322.34 151.72 320.4 151.87 318.46 151.63C318.46 151.63 318.34 151.61 318.11 151.58C312.85 150.85 309.29 147.16 308.09 142.78C308.04 142.67 308.03 142.63 308.03 142.63C306.87 138.28 307.98 133.31 311.97 129.91L317.49 125.2C320.05 123.03 322.57 121.32 324.2 120.27C330.7 116.24 340.59 115.65 347.63 123.29C347.95 123.66 348.8 123.75 349.81 123.98C351.37 124.3 353.3 124.91 354.28 127.09C356.26 131.5 357.62 135.73 358.52 139.59C358.54 139.61 358.54 139.61 358.54 139.62C359.61 147.29 358.81 152.14 357.68 155.12Z" fill="#2D166D"/>
<path d="M357.68 155.12C357.25 154.62 357.21 154.57 356.8 154.07C357.3 151.61 356.98 148.46 355.09 146.52C351.93 143.33 348.16 146.2 347.89 148.92C347.84 149.41 347.84 149.99 347.89 150.6C348.03 153.32 348.59 155.63 348.59 155.63L346.64 157.4C346.64 157.4 346.21 155.98 345.53 154.53C344.92 153.2 344.08 151.84 343.15 151.55C341.18 150.99 337.44 151.29 335.06 146.33C335.06 146.33 330.16 150.05 324.2 151.32C322.34 151.72 320.4 151.87 318.46 151.63C318.46 151.63 318.34 151.61 318.11 151.58C312.85 150.85 309.29 147.16 308.09 142.78C308.53 143.7 311.19 148.64 318.34 148.7C326.21 148.76 335.56 141.62 340.46 137.36C345.34 133.12 351.61 128.33 349.81 123.96C351.37 124.28 353.3 124.89 354.28 127.07C356.26 131.48 357.62 135.71 358.52 139.57C358.54 139.59 358.54 139.59 358.54 139.6C359.61 147.29 358.81 152.14 357.68 155.12Z" fill="#1D0E56"/>
<path d="M352.16 158.84C352.16 158.84 350.94 162.18 349.59 164.66C348.56 162.54 346.39 157.94 345.44 155.92L348.34 152.03L348.21 150.58L344.98 154.93C344.98 154.93 341.13 161.56 332.93 164.33C325.78 166.74 320.65 164.38 320.65 164.38C320.86 164.9 321.09 165.42 321.34 165.94C325.64 175.26 326.79 177.32 331.1 178.22C335.42 179.1 339.02 178.54 344.72 172.85C347.04 170.53 348.79 167.88 350.03 165.56C350.03 165.56 351.77 162.29 352.59 159.44C352.58 159.44 352.22 159.25 352.16 158.84Z" fill="#27AFAF"/>
<path d="M317.057 244.351L316.51 241.839L304.471 244.457L305.018 246.969L317.057 244.351Z" fill="#D3EDF4"/>
<path d="M306.44 247.05L305.73 243.8C305.68 243.77 305.66 243.75 305.61 243.72L304.28 244.01C304.25 244.06 304.23 244.08 304.2 244.13L304.91 247.38C304.96 247.41 304.98 247.43 305.03 247.46L306.36 247.17C306.4 247.12 306.41 247.09 306.44 247.05Z" fill="#2B325E"/>
<path opacity="0.3" d="M311.72 246.32L310.84 242.26L297.76 245.1C297.59 245.14 297.49 245.3 297.52 245.47L298.27 248.93C298.31 249.1 298.47 249.2 298.64 249.17L311.72 246.32Z" fill="#29ABE2"/>
<path opacity="0.5" d="M304.91 247.4L304.2 244.14C304.15 244.11 304.13 244.09 304.08 244.06L297.96 245.39C297.88 245.41 297.82 245.49 297.84 245.57L298.53 248.73C298.55 248.81 298.63 248.87 298.72 248.85L304.84 247.52C304.87 247.48 304.88 247.45 304.91 247.4Z" fill="#29ABE2"/>
<path d="M298.18 248.47L297.63 245.94L296.06 246.28C295.94 246.31 295.86 246.42 295.89 246.54L296.35 248.64C296.38 248.76 296.49 248.84 296.61 248.81L298.18 248.47Z" fill="#2B325E"/>
<path d="M296.28 248.37L295.94 246.81L293.7 247.56C293.6 247.6 293.53 247.7 293.56 247.81L293.7 248.45C293.72 248.56 293.82 248.63 293.93 248.62L296.28 248.37Z" fill="#2B325E"/>
<path d="M293.61 248.03L293.65 248.23L287.25 249.62L287.41 249.38L293.61 248.03Z" fill="#88ACE5"/>
<path opacity="0.8" d="M312.16 246.57L311.14 241.86C311.12 241.76 311.02 241.69 310.91 241.71C310.81 241.73 310.74 241.83 310.76 241.94L311.79 246.65C311.81 246.75 311.91 246.82 312.02 246.8C312.12 246.77 312.19 246.67 312.16 246.57Z" fill="#29ABE2"/>
<path d="M317.62 244.48L316.97 241.48C316.94 241.35 316.81 241.26 316.67 241.29C316.54 241.32 316.45 241.45 316.48 241.59L317.13 244.59C317.16 244.72 317.29 244.81 317.43 244.78C317.56 244.75 317.65 244.61 317.62 244.48Z" fill="#5F8DCE"/>
<path d="M299.04 247.18L299.28 248.3C299.29 248.36 299.26 248.41 299.2 248.42C299.15 248.43 299.09 248.4 299.08 248.34L298.84 247.22C298.83 247.16 298.86 247.11 298.92 247.1C298.98 247.09 299.03 247.12 299.04 247.18Z" fill="url(#paint0_linear)"/>
<path d="M299.97 247.39L300.13 248.12C300.14 248.18 300.11 248.23 300.05 248.24C299.99 248.25 299.94 248.22 299.93 248.16L299.77 247.43C299.76 247.37 299.79 247.32 299.85 247.31C299.9 247.3 299.96 247.33 299.97 247.39Z" fill="url(#paint1_linear)"/>
<path d="M300.73 246.81L300.97 247.93C300.98 247.99 300.95 248.04 300.89 248.05C300.83 248.06 300.78 248.03 300.77 247.97L300.53 246.85C300.52 246.79 300.55 246.74 300.61 246.73C300.66 246.72 300.71 246.76 300.73 246.81Z" fill="url(#paint2_linear)"/>
<path d="M301.65 247.02L301.81 247.75C301.82 247.8 301.79 247.86 301.73 247.87C301.67 247.88 301.62 247.85 301.61 247.79L301.45 247.06C301.44 247 301.47 246.95 301.53 246.94C301.59 246.93 301.64 246.97 301.65 247.02Z" fill="url(#paint3_linear)"/>
<path d="M302.41 246.45L302.65 247.57C302.66 247.63 302.63 247.68 302.57 247.69C302.51 247.7 302.46 247.67 302.45 247.61L302.21 246.49C302.2 246.43 302.23 246.38 302.29 246.37C302.34 246.36 302.4 246.39 302.41 246.45Z" fill="url(#paint4_linear)"/>
<path d="M303.33 246.66L303.49 247.39C303.5 247.45 303.47 247.5 303.41 247.51C303.35 247.52 303.3 247.49 303.29 247.43L303.13 246.7C303.12 246.64 303.15 246.59 303.21 246.58C303.27 246.57 303.32 246.6 303.33 246.66Z" fill="url(#paint5_linear)"/>
<path d="M304.09 246.08L304.33 247.2C304.34 247.26 304.31 247.31 304.25 247.32C304.19 247.33 304.14 247.3 304.13 247.24L303.89 246.12C303.88 246.06 303.91 246.01 303.97 246C304.02 245.99 304.08 246.03 304.09 246.08Z" fill="url(#paint6_linear)"/>
<path d="M305.02 246.29L305.18 247.02C305.19 247.07 305.16 247.13 305.1 247.14C305.04 247.15 304.99 247.12 304.98 247.06L304.82 246.33C304.81 246.27 304.84 246.22 304.9 246.21C304.95 246.2 305 246.24 305.02 246.29Z" fill="url(#paint7_linear)"/>
<path d="M305.77 245.71L306.01 246.83C306.02 246.89 305.99 246.94 305.93 246.95C305.87 246.96 305.82 246.93 305.81 246.87L305.57 245.75C305.56 245.69 305.59 245.64 305.65 245.63C305.71 245.62 305.76 245.66 305.77 245.71Z" fill="url(#paint8_linear)"/>
<path d="M306.7 245.92L306.86 246.65C306.87 246.71 306.84 246.76 306.78 246.77C306.72 246.78 306.67 246.75 306.66 246.69L306.5 245.96C306.49 245.9 306.52 245.85 306.58 245.84C306.63 245.83 306.69 245.87 306.7 245.92Z" fill="url(#paint9_linear)"/>
<path d="M307.45 245.35L307.69 246.47C307.7 246.53 307.67 246.58 307.61 246.59C307.56 246.6 307.5 246.57 307.49 246.51L307.25 245.39C307.24 245.33 307.27 245.28 307.33 245.27C307.39 245.26 307.44 245.29 307.45 245.35Z" fill="url(#paint10_linear)"/>
<path d="M308.38 245.56L308.54 246.29C308.55 246.35 308.52 246.4 308.46 246.41C308.4 246.42 308.35 246.39 308.34 246.33L308.18 245.6C308.17 245.54 308.2 245.49 308.26 245.48C308.31 245.47 308.37 245.5 308.38 245.56Z" fill="url(#paint11_linear)"/>
<path d="M309.14 244.98L309.38 246.1C309.39 246.15 309.36 246.21 309.3 246.22C309.24 246.23 309.19 246.2 309.18 246.14L308.94 245.02C308.93 244.96 308.96 244.91 309.02 244.9C309.07 244.89 309.12 244.93 309.14 244.98Z" fill="url(#paint12_linear)"/>
<path d="M310.06 245.19L310.22 245.92C310.23 245.98 310.2 246.03 310.14 246.04C310.08 246.05 310.03 246.02 310.02 245.96L309.86 245.23C309.85 245.17 309.88 245.12 309.94 245.11C310 245.1 310.05 245.14 310.06 245.19Z" fill="url(#paint13_linear)"/>
<path d="M310.82 244.62L311.06 245.74C311.07 245.8 311.04 245.85 310.98 245.86C310.92 245.87 310.87 245.84 310.86 245.78L310.62 244.66C310.61 244.6 310.64 244.55 310.7 244.54C310.75 244.53 310.81 244.56 310.82 244.62Z" fill="url(#paint14_linear)"/>
<path d="M328.82 237.88C328.82 237.88 324.31 239.34 322.84 239.53C321.38 239.72 317.79 238.29 315.45 238.11C313.11 237.93 309.36 241.32 308.05 241.89C306.74 242.46 307.19 243.62 308.98 243.66C310.77 243.71 314.63 241.85 314.63 241.85C314.63 241.85 315.54 242.14 316.06 242.85C316.58 243.57 315.46 245.15 313.8 245.77C312.14 246.39 305.54 247.12 304.09 247.35C302.08 247.67 302.06 249.42 305.18 249.87C305.18 249.87 305.19 249.87 305.2 249.87C305.43 250.07 305.78 250.33 306.34 250.59C306.77 250.79 307.53 251.05 308.4 251.31C309.31 251.89 310.82 252.78 312.26 253.22C314.52 253.92 316.73 254 317.39 253.67C317.39 253.67 322.12 251.29 324.17 250.05C326.22 248.81 329.98 247.52 329.98 247.52L328.82 237.88Z" fill="#27AFAF"/>
<path d="M375.92 183.15C374.9 193 374.14 223.58 374.14 223.58L326.53 237.46C326.53 237.46 323.73 248.18 331.29 252.06C331.29 252.06 377.35 246.34 393.46 239.06C397.07 236.26 402.53 208.9 403.3 196.11C404.13 182.25 404.23 174.25 396.25 169.91C388.19 165.54 377.13 171.44 375.92 183.15Z" fill="#D3EDF4"/>
<path d="M386.38 372.65C385.39 372.16 384.43 371.67 383.48 371.19C383.79 360.66 385.52 301.24 384.9 289.25C384.23 276.1 383.42 267.52 379.87 256.92C377.73 250.53 364.65 220.03 358.22 206.01C352.06 192.54 349.69 182.02 349.18 179.28C349.58 179.26 349.99 179.22 350.4 179.14C351.51 185.17 356.56 198.69 359.52 205.34C362.57 212.21 379.87 250.89 381.45 254.86C383.96 261.19 386.53 270.37 387.29 289.82C388 307.55 386.64 362.94 386.38 372.65Z" fill="#D3EDF4"/>
<path d="M397.74 257.97C397.96 257.47 398.58 257.3 399.02 257.62C400.5 258.7 404.02 261.02 410.32 263.9C416.33 266.65 421.29 268.21 423.23 268.78C423.7 268.92 423.96 269.43 423.79 269.89L421.77 275.33C421.62 275.72 421.22 275.95 420.81 275.87C417.97 275.31 407.05 272.73 395.68 264.39C395.36 264.15 395.24 263.72 395.4 263.35L397.74 257.97Z" fill="#D3EDF4"/>
<path d="M369.78 265.26C368.76 266.36 366.12 269 361.98 272.02C361.74 268.89 361.37 266.02 360.87 262.91C362.84 261.38 364.27 260.13 365.05 259.45C365.42 259.11 365.98 259.18 366.29 259.56L369.83 264.17C370.09 264.48 370.07 264.95 369.78 265.26Z" fill="#D3EDF4"/>
<path d="M235 489.27C233.01 489.27 231.02 488.76 229.24 487.73L147.59 440.53C145.37 439.25 144.04 436.95 144.04 434.38C144.04 431.81 145.36 429.51 147.58 428.22L281.16 350.77C284.72 348.7 289.13 348.7 292.69 350.75L374.38 397.9C376.6 399.19 377.93 401.49 377.94 404.05C377.94 406.62 376.62 408.92 374.4 410.22L240.78 487.71C239 488.75 236.99 489.27 235 489.27ZM286.93 353.54C285.69 353.54 284.44 353.86 283.33 354.51L149.75 431.97C148.5 432.7 148.36 433.9 148.36 434.38C148.36 434.86 148.5 436.06 149.75 436.79L231.4 483.99C233.61 485.27 236.36 485.27 238.59 483.98L372.21 406.49C373.46 405.76 373.6 404.56 373.59 404.08C373.59 403.6 373.45 402.4 372.2 401.67L290.51 354.52C289.41 353.86 288.17 353.54 286.93 353.54Z" fill="#233D66"/>
<path d="M235.09 537.45C232.87 537.45 231.07 535.65 231.07 533.43V427.86C231.07 425.64 232.87 423.84 235.09 423.84C237.31 423.84 239.11 425.64 239.11 427.86V533.44C239.11 535.66 237.3 537.45 235.09 537.45Z" fill="#233D66"/>
<path d="M151.22 489.7C149 489.7 147.2 487.9 147.2 485.68V392.83C147.2 390.61 149 388.81 151.22 388.81C153.44 388.81 155.24 390.61 155.24 392.83V485.68C155.24 487.91 153.44 489.7 151.22 489.7Z" fill="#233D66"/>
<path d="M370.08 460.6C367.86 460.6 366.06 458.8 366.06 456.58V365.18C366.06 362.96 367.86 361.16 370.08 361.16C372.3 361.16 374.1 362.96 374.1 365.18V456.58C374.1 458.8 372.3 460.6 370.08 460.6Z" fill="#233D66"/>
<path d="M286.22 412.85C284 412.85 282.2 411.05 282.2 408.83V315.97C282.2 313.75 284 311.95 286.22 311.95C288.44 311.95 290.24 313.75 290.24 315.97V408.83C290.24 411.05 288.44 412.85 286.22 412.85Z" fill="#233D66"/>
<path d="M383.41 362.12C383.41 356.96 378.8 354.3 378.8 354.3L378.81 361.4H378.8L294.62 312.81C291.64 311.09 287.96 311.09 284.98 312.82L143.25 395V387.91C143.25 387.91 138.63 390.79 138.63 395.81C138.63 395.81 138.13 400.87 143.27 403.84L227.4 452.47C230.39 454.2 234.07 454.19 237.05 452.46L378.82 370.23C383.77 367.33 383.41 362.12 383.41 362.12Z" fill="#4E669B"/>
<path d="M378.81 363.12L237.04 445.35C234.06 447.08 230.38 447.09 227.39 445.36L143.25 396.73C139.86 394.77 139.85 389.87 143.24 387.9L284.97 305.71C287.95 303.98 291.63 303.97 294.61 305.7L378.79 354.29C382.19 356.25 382.2 361.15 378.81 363.12Z" fill="#94CCFF"/>
<path d="M324.62 471.04C324.62 471.04 321.03 475.1 320.55 478.96C320.07 482.82 321.44 487.29 322.58 491.14C323.72 495 323.42 507.99 323.93 508.4C324.44 508.81 325.3 508.91 325.86 508.4L326.27 491.39C326.27 491.39 329.01 492.56 329.92 496.16C330.83 499.76 330.96 507.11 332.99 511.58C333.7 513.15 348.91 521.55 354.34 518.6C354.34 518.6 355.97 515.5 354.95 512.15C353.93 508.8 351.31 505.78 349.5 503.76C347.69 501.74 338.55 489.4 338.55 489.4" fill="#1B115E"/>
<path d="M343.94 508.02C339.02 507.49 334.09 504.99 332.88 497.94C331.67 490.9 328.72 486.79 327.04 484.24C325.62 482.1 322.05 481.43 324.09 473.86C325.68 467.91 325.11 458.3 322.48 445.81L338.14 445.27C337.45 456.69 337.01 465.97 337.21 469.12C337.89 479.26 341.92 484.25 344.41 493.03C346.42 500.11 349.53 503.77 349.53 503.77C349.53 503.77 349.55 508.62 343.94 508.02Z" fill="#F4DDBA"/>
<path d="M296.86 488.98C296.86 488.98 292.39 494.94 292.26 499.94C292.12 504.95 293.88 507.52 294.56 519.57C295.24 531.62 300.85 539.08 310.87 540.17C310.87 540.17 315.07 540.58 315.74 535.97C316.42 531.37 316 525.73 313.84 519.07C311.68 512.41 305.52 504.41 305.52 504.41" fill="#1B115E"/>
<path d="M314.35 523.72C314.05 529 304.41 530.82 299.94 525.34C295.47 519.86 295.5 506.48 295.11 492.81C294.87 484.68 293.47 474.65 292.15 465.62C298.42 466.03 305.43 466.39 311.52 466.49C309.76 477.72 308.1 488.37 308.2 491.38C308.4 497.68 314.67 518.45 314.35 523.72Z" fill="#F4DDBA"/>
<path d="M339.23 471.05C339.23 471.05 336.4 473.55 330.17 472.84C325.81 472.33 323.6 469.87 323.6 469.87C323.6 469.87 321.66 446.21 320.53 441.25C320.26 440.05 319.91 438.53 319.5 436.87V436.82C318.92 434.54 318.3 431.92 317.67 429.33C317.1 434.96 316.52 440.05 316.07 443.03C314.77 451.69 309.68 486.1 309.68 486.1C303.07 488.41 298.21 487.46 295.52 486.45C293.96 485.87 293.13 485.26 293.13 485.26C293.13 485.26 288.69 453.67 288.37 444.2C288.05 434.73 289.1 424.14 289.14 423.83C290.33 415.17 286.52 414.03 286.52 414.03C278.6 410.03 254.93 399.02 243.78 393.67C233.05 388.53 220.37 377.39 219.76 364.49C219.4 356.97 220.22 351.74 221.21 348.26C222.43 344.06 223.93 342.43 223.93 342.43C232.37 326.97 280.32 320.9 280.32 320.9C280.32 320.9 280.46 337.56 284.67 342.43C288.86 347.3 311.68 357.03 321.27 363.15C327.75 367.26 332 370.12 333.79 371.49C333.79 371.49 342.62 377.72 343.02 384.31C343.99 399.8 339.23 471.05 339.23 471.05Z" fill="white"/>
<path opacity="0.3" d="M295.53 486.44C293.97 485.86 293.14 485.25 293.14 485.25C293.14 485.25 288.7 453.66 288.38 444.19C288.06 434.72 289.11 424.13 289.15 423.82C290.34 415.16 286.53 414.02 286.53 414.02C278.61 410.02 254.94 399.01 243.79 393.66C233.06 388.52 220.38 377.38 219.77 364.48C219.41 356.96 220.23 351.73 221.22 348.25C222.69 348.06 223.72 347.97 224.02 347.97C225.21 347.97 240.01 352.03 240.01 352.03L237.12 363.85C237.12 363.85 234.19 378.68 247.69 385.89C260.57 392.77 292.14 409.79 292.14 409.79C292.14 409.79 294.48 412.07 294.75 416.6C295.03 421.14 289.72 461.93 295.53 486.44Z" fill="#D3EDF4"/>
<path d="M319.51 436.82C318.93 434.54 318.3 431.91 317.68 429.32C317.68 429.32 318.65 407.57 317.3 401.3C315.6 393.41 285.43 371.43 281.23 369.11C285.47 371.16 310.23 387.32 318.66 396.34C322.98 400.95 319.87 432.35 319.51 436.82Z" fill="#D3EDF4"/>
<path d="M324.99 284.21C318.93 275.55 281.45 237.46 281.45 237.46L276.84 263.87L306.24 293.01L294.48 341.97C294.48 341.97 290.15 345.45 288.57 346.44C286.99 347.42 283.99 355.1 283.3 356.78C282.61 358.45 282.32 359.39 283.64 359.24C283.93 359.21 284.37 358.82 284.85 358.25C284.4 359.33 283.9 360.6 283.65 361.34C283.47 361.88 284.63 362.62 285.91 361.54C286.56 360.99 287.17 360.02 287.61 359.19C287.4 359.73 287.21 360.24 287.09 360.61C286.91 361.15 288.07 361.89 289.35 360.81C290.63 359.73 291.78 356.96 291.78 356.96L292.14 356.34C291.7 357.4 291.01 359.06 290.73 359.94C290.57 360.42 291.61 361.09 292.76 360.12C293.91 359.15 294.94 356.67 294.94 356.67L295.92 354.99C295.92 354.99 298.51 353.56 300.69 352.2C302.24 350.09 302.48 344.96 302.48 344.96C304.53 341.2 330.81 292.54 324.99 284.21Z" fill="#F4DDBA"/>
<path d="M291.48 280.64C291.29 281.18 291.07 281.71 290.86 282.23C290.86 282.23 290.86 282.23 290.86 282.25C290.86 282.25 290.84 282.25 290.84 282.27C289.52 285.42 287.87 288.02 286.44 289.92C285.21 291.56 284.25 293.35 283.56 295.25H283.54C282.91 296.99 282.5 298.79 282.34 300.64C280.51 320.56 284.84 337.21 286.37 342.32C286.68 343.36 286.39 344.47 285.61 345.23C281 349.74 264.51 364.51 246.27 364.51C231.49 364.51 223.68 360.03 220.24 357.23C218.84 356.09 218.36 354.19 219.04 352.52C220.68 348.45 223.9 340.23 225.68 333.96C227.58 327.24 229.63 314.56 227.6 304C225.57 293.44 210.96 269.37 221.45 258.83C231.98 248.25 256.5 232.1 270.64 231.64C278.35 231.39 283.7 238.64 284.87 245.88C285.52 249.9 283.86 254.21 285.27 257.85C287.86 264.46 294.32 272.66 291.48 280.64Z" fill="#EFFAFD"/>
<path d="M291.48 280.63C291.28 281.16 291.07 281.71 290.85 282.23C290.85 282.23 290.85 282.23 290.85 282.25C290.85 282.25 290.83 282.25 290.83 282.27C289.52 285.41 287.85 288.02 286.44 289.91C285.2 291.56 284.24 293.34 283.56 295.23H283.54C282.91 296.97 282.5 298.78 282.33 300.63C280.5 320.56 284.83 337.2 286.37 342.31C286.68 343.35 286.39 344.45 285.61 345.21C281 349.71 264.51 364.49 246.28 364.49C242.86 364.49 239.83 364.25 237.13 363.85C228.13 362.51 222.9 359.36 220.24 357.2C218.85 356.07 218.36 354.16 219.03 352.5C220.68 348.43 223.9 340.2 225.67 333.93C227.58 327.22 229.62 314.52 227.59 303.97C225.65 293.9 212.29 271.56 220.14 260.37C220.52 259.82 220.95 259.3 221.44 258.81C231.97 248.22 256.48 232.08 270.63 231.62C278.35 231.36 283.69 238.61 284.86 245.85C285.5 249.86 283.85 254.18 285.26 257.81C287.85 264.46 294.32 272.67 291.48 280.63Z" fill="#2D166D"/>
<path d="M234.93 288.38C231.26 280.24 223.24 264.74 220.16 260.37C212.3 271.57 225.67 293.9 227.61 303.97C229.64 314.53 227.59 327.22 225.69 333.93C223.92 340.2 220.7 348.42 219.05 352.5C218.38 354.16 218.87 356.07 220.26 357.2C222.91 359.37 228.15 362.51 237.15 363.85C239.07 357.67 241.77 344.67 242.44 336.04C242.83 331.05 243.25 323.87 243.55 318.08C244.1 318.63 244.63 319.11 245.13 319.46C251.52 323.99 277.71 300.9 277.71 300.9L234.93 288.38Z" fill="#180C51"/>
<path d="M267.85 245.64C267.85 245.64 272.32 251.27 267.46 253.07C267.46 253.07 267.46 248.91 267.85 245.64Z" fill="#E2B98A"/>
<path d="M267.46 253.06C255.25 255.8 247.69 249.37 245.08 244.91C244.51 243.94 244.55 242.72 245.19 241.79C245.63 241.15 246.04 240.48 246.24 239.94C246.76 238.49 247.43 228.73 247.43 228.73C247.43 228.73 247.79 219.74 247.68 219.5H250.96L273.02 228.7C267.33 235.26 267.46 253.06 267.46 253.06Z" fill="#F0CDA2"/>
<path d="M290.82 205.77C290.82 205.77 289.33 219.85 282.62 230.83C275.92 241.81 270.19 243.91 267.41 243.35C264.63 242.79 251.37 232.8 249.73 220.13C248.09 207.46 250.15 197.92 254.04 191.71C257.93 185.5 271.22 182.82 279.05 186.45C286.88 190.07 292.11 197.66 290.82 205.77Z" fill="#F4DDBA"/>
<path d="M265.79 185.25L258.48 190.5L253.88 193.83C253.88 193.83 241.81 188.82 242.19 179.83C242.23 178.57 242.82 177.07 243.65 175.62C244.64 173.93 246.25 172.45 247.54 171.63C253.61 167.56 265.23 171.86 265.79 185.25Z" fill="#2D166D"/>
<path d="M258.48 190.5L253.88 193.83C253.88 193.83 241.81 188.82 242.19 179.83C242.23 178.57 242.82 177.07 243.65 175.62C243.65 175.62 245.34 187.51 254.9 189.26C256.63 189.57 257.79 189.97 258.48 190.5Z" fill="#1D0E56"/>
<path d="M288.28 210.93C280.31 215.13 269.78 216.01 265.78 215.51C265.05 215.42 264.53 215.29 264.3 215.12C263.47 214.51 265 212.93 266.58 211.59C261.89 211.42 257.69 211.94 256.88 214.28C256.31 215.88 255.83 217.66 255.25 219.67L255.02 220.57C250.76 219.73 248.82 226.26 248.05 228.21C247.25 230.14 245.77 226.51 244.91 222.89C244.07 219.24 237.21 212.87 242.62 199.3L242.63 199.24C245.4 193.58 249.12 188.55 253.81 185.65C254.29 185.35 254.77 185.07 255.25 184.82C255.25 184.81 255.25 184.81 255.25 184.81C271.59 175.79 288.18 186.06 292.18 199.1C292.28 199.46 292.4 199.74 292.46 200.09C293.45 204.41 291.63 209.16 288.28 210.93Z" fill="#2D166D"/>
<path d="M265.78 215.51C265.05 215.42 264.53 215.29 264.3 215.12C263.47 214.51 265 212.93 266.58 211.59C261.89 211.42 257.69 211.94 256.88 214.28C256.31 215.88 255.83 217.66 255.25 219.67L255.02 220.57C250.76 219.73 248.82 226.26 248.05 228.21C247.25 230.14 245.77 226.51 244.91 222.89C244.07 219.24 237.21 212.87 242.62 199.3L242.63 199.24C245.4 193.58 249.12 188.55 253.81 185.65C254.29 185.35 254.77 185.07 255.25 184.82C254.94 185.23 249.77 192.65 259.06 200.61C268.59 208.77 271.75 209.67 271.75 209.67C271.75 209.67 263.86 214.25 265.78 215.51Z" fill="#1D0E56"/>
<path d="M264.85 225.03C261.39 222.66 258.77 219.24 257.21 215.34C257.2 215.31 257.19 215.29 257.19 215.29L256.44 215.79C257.37 218.45 258.75 220.93 259.32 221.92C258.15 223.17 255.94 225.9 253.94 228.93C252.93 227.22 251.43 224 251.43 224L250.81 224.68C251.6 227.25 253.3 229.91 253.3 229.91C257.91 237.62 265.4 242.94 267.4 243.34C270.19 243.9 275.91 241.81 282.62 230.82C283.28 229.72 283.9 228.61 284.46 227.47C284.47 227.48 276.81 233.2 264.85 225.03Z" fill="#27AFAF"/>
<path d="M250.31 224.78C250.31 224.78 247.62 221.26 249.76 216.67C251.28 213.4 253.88 211.74 256.54 212.95C259.7 214.39 258.89 216.81 258.36 218.06C257.35 220.35 253.02 227.47 250.31 224.78Z" fill="#F4DDBA"/>
<path d="M313.9 277.52C313.74 277.99 312.83 278.95 311.77 279.96C312.27 279.98 312.56 280.43 312.38 281.02C312.13 281.79 309.29 284.72 307.56 285.84C305.35 287.26 302.68 288.19 302.68 288.19C302.68 288.19 297.94 289.21 294.84 289.86C293.28 290.19 291.56 291.25 290 292.3C288.44 293.37 287.02 294.46 286.09 294.85C274.12 303.7 253.52 318.12 249.11 315.91C245.88 314.29 239.64 307.07 233.69 298.95C230.41 294.46 227.22 289.7 224.65 285.45C222.81 282.41 221.29 279.62 220.32 277.39C213.61 262.22 226.38 251.26 234.43 260.06C237.91 263.87 242.04 270.11 245.69 276.17C247.23 278.72 248.68 281.23 249.97 283.51C249.97 283.51 249.97 283.51 249.97 283.53C253.14 289.12 255.31 293.34 255.31 293.34L283.98 283.4L284 283.38L285.09 283C287.33 282.21 292.3 280.37 293.3 279.25C294.58 277.82 296.92 275.28 297.88 274.21C299.03 272.93 301.71 270.45 301.98 270.07C302.25 269.71 303.79 270.01 302.72 272.67C302.26 273.77 301.33 274.81 300.88 275.54C300.22 276.55 299.86 277.24 299.86 277.24C299.86 277.24 302.85 275.38 304.27 274.48C305.69 273.58 308.37 272.01 309.2 271.57C310.05 271.13 311.18 271.81 310.02 273.24C309.11 274.36 307.74 275.68 306.19 277.1C307.39 276.11 311.09 273.51 312.19 272.88C313.29 272.25 314.08 272.82 313.84 273.89C313.68 274.55 312.04 276.19 310.55 277.56C311.29 277.02 311.95 276.57 312.35 276.39C313.49 275.83 314.21 276.48 313.9 277.52Z" fill="#F0CDA2"/>
<path d="M249.98 283.51C249.98 283.51 249.98 283.51 249.98 283.53C249.87 284 247.43 293.52 233.69 298.95C230.41 294.46 227.22 289.7 224.65 285.45C230.21 282.32 243.36 276.61 245.69 276.17C247.24 278.72 248.69 281.22 249.98 283.51Z" fill="#E2B98A"/>
<path d="M227.13 255.78C227.13 255.78 233.97 254.55 239.14 262.72C245.11 272.16 249.67 281.42 249.67 281.42C249.67 281.42 250.24 285.95 240.38 291.81C234.18 295.49 227.57 296.19 227.57 296.19C227.57 296.19 218.03 279.6 217.71 269.26C217.39 258.93 224.64 255.94 227.13 255.78Z" fill="#2D166D"/>
<path d="M171.28 563.85V564.1C171.28 565.19 171.03 566.79 170.32 567.63C167.15 571.34 162.56 573.17 158.04 574.07C153.63 574.95 148.8 575.09 146.74 575.31C144.16 575.59 142.62 576.03 142.62 576.03V576.5C141.82 576.7 139.13 577.15 136.8 577.28H136.78C134.55 577.35 131.85 576.86 130.48 575.71C128.91 574.32 128.75 572.64 128.75 572.64L128.77 571.52V571L134.28 570.62C134.3 570.62 134.3 570.62 134.3 570.62L137.03 570.43L139.55 570.27L141.89 570.11L171.28 563.85Z" fill="#4442A4"/>
<path d="M147.35 558.02C147.35 558.02 152.67 560.01 156.52 560.01C160.37 560.01 167.87 559.91 169.8 561.26C170.76 561.93 171.31 562.75 171.3 563.66C171.28 568.81 159.57 573.32 151.81 573.59C144.48 573.85 144.11 574.07 140.65 574.65C137.19 575.23 133.58 575.5 131.4 574.42C127.63 572.55 127.37 565.77 129.68 562.02C131.99 558.27 147.35 558.02 147.35 558.02Z" fill="white"/>
<path d="M131.48 553.29C131.48 553.29 131.2 559.04 131.13 560.07C131.05 561.1 130.51 562.02 130.67 562.93C130.92 564.39 132.99 566.71 139.43 566.04C144.16 565.55 148.14 562.54 148.78 560.69C149.33 559.1 148.1 558.84 147.88 558.24C147.53 557.29 147.89 548.73 147.24 551.64" fill="#E8CAAF"/>
<path d="M138.67 537.28C138.67 537.28 139.23 539.67 138.45 542.1C137.67 544.53 136.31 546.22 134.72 547.99C133.13 549.76 130.52 551.9 128.7 552.97C126.88 554.04 124.05 556.13 123.67 556.5C122.21 557.89 120.08 561.19 120.08 561.19V562.18C120.08 562.18 118.01 564.74 115.07 566.1C112.89 567.12 108.87 567.92 105.6 566.64C102.2 565.31 101.65 561.98 101.53 561.26C101.41 560.54 101.53 557.85 101.53 557.85" fill="#4442A4"/>
<path d="M116.2 540.95C116.2 540.95 123.24 538.7 127.21 535.85C132.68 531.93 136.68 532.93 138.05 535.26C139.44 537.63 139.99 545.47 128.33 552.27C123.74 554.95 121.71 557.19 120.29 559.39C119.2 561.07 117.13 563.16 114.81 564.32C112.84 565.31 110.68 565.52 108.73 565.36C100.74 564.71 99.0803 556.63 102.97 550.51C106.86 544.39 116.2 540.95 116.2 540.95Z" fill="white"/>
<path d="M104.09 544.51L103.79 550.52C103.79 550.52 102.98 551.91 103.27 553.12C103.66 554.75 108.28 557.89 114.61 554.56C121.7 550.83 120.54 548.31 120.58 548.01C119.85 545.42 119.92 544.82 119.92 542.82" fill="#E8CAAF"/>
<path d="M133.93 425.99C133.69 430.89 133.19 435.24 132.49 439.27C131.4 445.75 129.87 451.42 128.22 457.3C128.22 457.32 128.22 457.32 128.22 457.33C128.06 457.91 127.9 458.52 127.75 459.12L127.73 459.17C126.84 462.74 126.17 466.44 125.56 470.53C123.54 484.14 121.69 526.75 121.13 540.2C121.02 542.84 119.44 545.23 117.01 546.3C116.36 546.58 115.75 546.84 115.15 547.06C109.9 549.02 106.74 548.55 104.99 547.76C103.84 547.24 103.03 546.18 102.84 544.93C101.75 537.98 96.9001 505.85 97.7001 488.76C98.6001 469.53 102.79 459.43 103.48 457.59C104.16 455.76 103.01 451.25 102.36 435.46C102.31 434.43 102.27 433.39 102.2 432.33C101.76 422.91 101.03 412.62 100.45 405.23C99.9901 399.37 98.3801 393.68 96.0401 388.29C85.6101 364.22 102.41 341.43 102.41 341.43C112.79 351.67 127.32 351.2 127.32 351.2C127.32 351.2 129.22 365.47 131 381.99C132.76 398.33 134.39 416.88 133.93 425.99Z" fill="#435FA3"/>
<path d="M132.49 439.26C131.4 445.74 129.87 451.41 128.22 457.29C128.22 457.31 128.22 457.31 128.22 457.32C128.06 457.9 127.9 458.51 127.75 459.11L127.73 459.16C127.73 459.16 122.23 459.29 115.43 458.01C115.43 458.01 112 467.19 111.91 489.27C111.83 507.52 114.3 537.27 115.15 547.05C109.9 549.01 106.74 548.54 104.99 547.75C103.84 547.23 103.03 546.17 102.84 544.92C101.75 537.97 96.9002 505.84 97.7002 488.75C98.6002 469.52 102.79 459.42 103.48 457.58C104.16 455.75 103.01 451.24 102.36 435.45C102.31 434.42 102.27 433.38 102.2 432.32C103.86 432.32 106.14 432.62 109.25 433.32C124.28 436.67 132.49 439.26 132.49 439.26Z" fill="#375899"/>
<path d="M117.56 402.85C122.36 415.21 127.43 443.97 128.22 457.28C130.88 447.74 133.29 438.74 133.93 425.98C134.39 416.88 132.76 398.32 131 381.97C125.56 377.7 115.71 369.88 115.71 369.88C115.71 369.88 112.75 390.51 117.56 402.85Z" fill="#161143"/>
<path d="M163.33 443.45C162.75 448.62 162.13 453.34 161.59 457.29C160.99 461.75 160.48 465.21 160.22 467.18C159.07 475.65 156.3 488.86 153.96 509.92C152.32 524.7 150.93 542.51 150.34 550.65C150.12 553.57 148.25 556.12 145.52 557.18C145.03 557.37 144.52 557.56 143.99 557.73C139.87 559.14 134.52 560.05 131.14 557.3C130.43 556.72 130.02 555.83 129.95 554.9C129.44 546.43 126.69 498.45 128.16 482.61C129.76 465.21 133.34 463.99 132.89 458.27C132.78 457.01 132.45 453.86 131.97 449.7C130.26 435.14 126.68 408.12 124.54 404.91C121.81 400.8 107.6 379.04 121.35 350.19C121.35 350.19 137.14 354.16 158.43 349.19C158.43 349.19 164.61 373.09 165.76 398.04C166.4 412.05 164.94 429.4 163.33 443.45Z" fill="#435FA3"/>
<path d="M163.33 443.45C162.75 448.62 162.13 453.34 161.59 457.29C161.59 457.29 158.3 461.83 148.36 463.14C148.36 463.14 145.42 473.81 144.03 491.59C142.69 508.8 143.4 548.06 143.98 557.73C139.86 559.14 134.51 560.05 131.13 557.3C130.42 556.72 130.01 555.83 129.94 554.9C129.43 546.43 126.68 498.45 128.15 482.61C129.75 465.21 133.33 463.99 132.88 458.27C132.77 457.01 132.44 453.86 131.96 449.7C133.13 442.24 134 436.66 134 436.66L163.33 443.45Z" fill="#375899"/>
<path d="M238.14 273.93C238.45 274.59 238.39 275.37 237.99 275.98L206.37 324.57C205.66 325.67 204.23 326.03 203.1 325.4L136.12 288.43C135.17 287.89 134.86 286.67 135.46 285.73L168.35 235.19C168.99 234.21 170.27 233.88 171.28 234.44L233.83 268.97C233.54 269.21 233.34 269.39 233.34 269.39L236.86 271.15L238.14 273.93Z" fill="#6280B8"/>
<path d="M133.74 287.1L200.7 324.07C201.84 324.7 203.26 324.34 203.97 323.25L236.69 272.96C237.31 272 236.99 270.72 235.99 270.17L168.89 233.12C167.87 232.56 166.59 232.88 165.95 233.85L133.06 284.41C132.47 285.33 132.78 286.57 133.74 287.1Z" fill="#B6DFFD"/>
<path d="M151.98 284.07L195.06 307.85C195.79 308.25 196.71 308.02 197.16 307.32L218.21 274.97C218.61 274.35 218.4 273.53 217.76 273.17L174.6 249.34C173.94 248.98 173.12 249.18 172.71 249.81L151.55 282.33C151.17 282.94 151.37 283.73 151.98 284.07Z" fill="#75CAD8"/>
<path d="M136.9 286.57L199.73 321.26C200.8 321.85 202.14 321.51 202.8 320.49L233.5 273.31C234.08 272.41 233.78 271.21 232.85 270.69L169.9 235.93C168.94 235.4 167.74 235.7 167.15 236.62L136.29 284.05C135.71 284.92 136 286.07 136.9 286.57Z" stroke="#F8FAFF" stroke-width="0.2955" stroke-miterlimit="10"/>
<path d="M178.1 267.78L183.69 271.01L186.92 265.42C187.32 264.73 188.2 264.5 188.88 264.89L194.75 268.28C195.44 268.68 195.67 269.56 195.28 270.24L192.05 275.83L197.64 279.06C198.33 279.46 198.56 280.34 198.17 281.02L194.78 286.89C194.38 287.58 193.5 287.81 192.82 287.42L187.23 284.19L184 289.78C183.6 290.47 182.72 290.7 182.04 290.31L176.17 286.92C175.48 286.52 175.25 285.64 175.64 284.96L178.87 279.37L173.28 276.14C172.59 275.74 172.36 274.86 172.75 274.18L176.14 268.31C176.54 267.62 177.42 267.39 178.1 267.78Z" fill="#B2F2F9"/>
<path d="M206.18 301.84C206.18 301.84 207.62 300.23 207.93 299.21C208.23 298.18 208.41 296.67 209.67 295.11C210.92 293.55 214.5 287.38 215.22 287.8C215.94 288.22 216.66 290 216.09 292.39C215.52 294.78 214.53 296.34 214.49 296.95C214.45 297.56 218.59 297.65 221.1 296.83C222.49 296.37 226.54 293.04 227.57 291.94C228.52 291.93 227.19 299.22 226.62 301.44C226.15 303.26 220.36 309.1 220.36 309.1" fill="#E8CAAF"/>
<path d="M136.86 277.04L144.29 269.85C145.28 268.89 146.43 268.12 147.68 267.55C148.82 267.04 150.25 266.31 151.18 265.56C152.95 264.14 154.26 260.91 154.94 259.54C155.62 258.17 159.56 254.42 159.96 253.4C160.36 252.37 160.23 250.45 158.84 250.58C157.71 250.68 151.92 255.41 151.62 255.87L154.44 251.53C154.44 251.53 148.69 252.03 145.33 253.8C141.97 255.57 141.12 260.26 139.81 261.39C138.5 262.53 129.56 269.52 129.56 269.52" fill="#E8CAAF"/>
<path d="M151.66 203.52C151.66 203.52 154.02 212.3 148.16 217.78C142.31 223.26 144.86 205.81 144.86 205.81" fill="#4543A5"/>
<path d="M115.66 268.58L135.95 266.24L139.01 267.3C139.01 267.3 138.3 254.09 138.92 245.67C144.87 246.41 150.13 245.89 150.63 237.99C150.88 234 150.44 226.23 150.26 222.37C149.91 215.01 149.23 206.77 149.23 206.77C147.23 204.41 128.9 206.66 122.8 210.91C116.68 215.12 117.07 239.7 117.31 244.3C117.57 248.9 117.31 259.83 117.31 259.83L115.66 268.58Z" fill="#E8CAAF"/>
<path d="M150.53 228.22C150.53 228.22 149.14 230.27 144.31 230.49C139.48 230.7 135.16 230.07 135.16 230.07V244.2C135.16 244.2 139.34 247.03 146.27 245.72C148.13 245.37 150.03 244.69 150.7 239.61C151.37 234.52 150.53 228.22 150.53 228.22Z" fill="#27AFAF"/>
<path d="M169.26 381.92C167.34 372.59 164.21 359.26 161.85 346.09C160.44 338.28 159.31 330.53 158.86 323.74C158.8 322.98 158.75 322.25 158.72 321.54C158.61 319.12 158.27 316.44 157.77 313.62C158.07 311.21 158.39 308.67 158.71 306.08C160.05 295.1 161.23 283.45 159.81 279.16C157.37 271.68 138.91 259.99 138.91 259.99C138.91 259.99 116.79 261.49 117.3 255.15C117.3 255.15 105.33 253.38 99.8202 255.98C99.6002 256.02 86.8202 258.19 91.2002 291.55C92.7102 303.07 95.1502 308.01 96.4602 314.1L97.1402 327.92C96.6602 334.09 95.3102 342.36 92.6402 354.44C86.3502 382.71 91.8902 438.05 91.8902 438.05C91.8902 438.05 122.23 459.63 138.98 459.78C163.07 459.99 168.89 449.34 168.89 449.34C168.89 449.34 172.42 397.42 169.26 381.92Z" fill="white"/>
<path d="M150.55 313.67C150.55 313.67 159.06 330.68 162.47 335.87C166.72 342.34 168.93 344.79 176.89 339V339.02C176.89 339.02 206.75 311.61 209.54 311.33C212.35 311.06 212.8 311.51 215.86 311.06C218.92 310.62 220.36 309.09 220.36 309.09C220.36 309.09 214.6 301.03 213.71 296.11C211.43 297.57 207.2 301.12 204.4 302.76C201.51 304.46 183.68 313.97 174.27 319.36C173.52 317.63 170.43 308.51 169.77 306.89C169.75 306.96 150.99 313.93 150.55 313.67Z" fill="#E8CAAF"/>
<path d="M117.38 251.42L116.31 255.01C116.31 255.01 116.31 258.71 120.42 260.35C127.42 263.15 137.84 261.69 140.35 260.94V255.4C140.34 255.4 124.5 258.17 117.38 251.42Z" fill="white"/>
<path d="M151.7 206.08C150.67 214.44 142.09 211.83 141.64 221.35C141.35 227.77 135.27 233.78 135.41 243.44C135.53 251.94 136.4 279.39 135.78 280.15C135.59 280.37 133.84 280.43 131.21 280.24C122.51 279.61 104.34 276.28 102.59 266.75C102.03 260.27 102.68 225.26 104.39 213.53C105.02 209.18 106.46 205.06 108.89 201.62H108.91C113.88 194.62 122.96 190.42 137.83 192.92C142.48 193.7 152.74 197.72 151.7 206.08Z" fill="#2D166D"/>
<path d="M132.76 235.68C129.81 244.78 131.83 269.32 131.22 280.24C122.52 279.61 104.35 276.28 102.6 266.75C102.04 260.27 102.69 225.26 104.4 213.53C105.03 209.18 106.47 205.06 108.9 201.62H108.92C108.92 201.62 106.28 208.19 115.03 211.91C123.76 215.64 128 213.84 132.12 216.41C136.23 218.98 135.72 226.55 132.76 235.68Z" fill="#1D0E56"/>
<path d="M161.84 346.09C152.93 332.08 142.5 301.92 142.5 301.92L158.85 323.74C159.31 330.53 160.44 338.29 161.84 346.09Z" fill="#F1F1F3"/>
<path d="M207.34 304.23C205.49 302.03 204.39 302.2 204.39 302.2L174.88 317.79L172.04 309.45L159.81 279.15L137.9 290.12C148.84 320.68 163.5 339.74 165.25 341.68C167.89 344.62 170.59 344.44 176.7 340.21C182.81 335.98 208.53 312.76 208.53 312.76C208.53 312.76 209.19 306.43 207.34 304.23Z" fill="white"/>
<path d="M532.67 321.42V460.27H532.62C532.53 460.6 532.32 460.9 531.97 461.09L501.72 478.65C501.15 478.98 500.52 479.19 499.87 479.23C498.92 479.32 497.96 479.14 497.1 478.65L457.45 455.64C456.98 455.37 456.75 454.9 456.77 454.41V316.63L499.87 319.35L532.67 321.42Z" fill="#CAE8FF"/>
<path d="M532.67 321.42V460.27H532.62C532.53 460.6 532.32 460.9 531.97 461.09L501.72 478.65C501.15 478.98 500.52 479.19 499.87 479.23V319.35L532.67 321.42Z" fill="#699FE0"/>
<path d="M547.35 316.69V310.89L544.6 311.97L491.4 281.11C489.42 279.96 486.97 279.96 484.99 281.11L445.33 304.12L442.09 303.61V309.05H442.1C442.07 309.72 442.38 310.4 443.05 310.79L498.05 342.7C500.03 343.85 502.48 343.85 504.46 342.7L546.42 318.36C547.04 318 547.35 317.38 547.37 316.75H547.38V316.69H547.35Z" fill="#4E669B"/>
<path d="M546.4 312.76L504.44 337.1C502.46 338.25 500.01 338.25 498.03 337.1L443.03 305.19C441.76 304.45 441.76 302.61 443.03 301.87L484.99 277.53C486.97 276.38 489.42 276.38 491.4 277.53L546.4 309.44C547.67 310.18 547.67 312.02 546.4 312.76Z" fill="#94CCFF"/>
<path d="M523.91 308.26V305.12H520.82V305.78L489.46 287.59C488.24 286.88 486.73 286.88 485.51 287.59L462.18 301.13V300.55H459.09V303.74H459.12C459.16 304.09 459.33 304.43 459.67 304.63L493.54 324.28C494.76 324.99 496.27 324.99 497.49 324.28L523.32 309.29C523.7 309.07 523.88 308.7 523.9 308.32H523.91V308.26Z" fill="#4E669B"/>
<path d="M523.32 306.22L497.49 321.21C496.27 321.92 494.76 321.92 493.54 321.21L459.67 301.56C458.89 301.11 458.89 299.97 459.67 299.52L485.51 284.53C486.73 283.82 488.24 283.82 489.46 284.53L523.33 304.18C524.1 304.63 524.1 305.77 523.32 306.22Z" fill="white"/>
<path d="M522.51 305.52L520.58 306.64L496.86 320.41C495.9 320.96 494.69 320.96 493.73 320.41L462.41 302.23L460.48 301.11C460.13 300.92 460.13 300.41 460.48 300.21L486.11 285.34C487.09 284.77 488.29 284.77 489.26 285.34L522.51 304.62C522.86 304.83 522.86 305.33 522.51 305.52Z" fill="#61B4F2"/>
<path d="M520.58 306.64L496.86 320.41C495.9 320.96 494.69 320.96 493.73 320.41L462.41 302.23L486.12 288.46C487.1 287.91 488.3 287.91 489.27 288.46L520.58 306.64Z" fill="#94CCFF"/>
<path opacity="0.75" d="M483.94 285.8V295.24C483.94 296.69 485.84 297.87 488.18 297.87C490.52 297.87 492.42 296.69 492.42 295.24V285.8H483.94Z" fill="white"/>
<path d="M492.42 288.89V292.6C492.42 294.05 490.52 295.22 488.18 295.22C485.84 295.22 483.93 294.05 483.93 292.6V288.89C483.93 290.34 485.84 291.53 488.18 291.53C490.52 291.53 492.42 290.35 492.42 288.89Z" fill="#A7DAED"/>
<path opacity="0.75" d="M492.39 285.54C492.39 285.54 492.36 285.41 492.35 285.34C492.34 285.3 492.33 285.27 492.32 285.23C491.95 283.96 490.72 283.3 490.72 283.3V283.7C490.01 283.37 489.14 283.17 488.19 283.17C487.24 283.17 486.37 283.37 485.66 283.7V283.3C485.66 283.3 484.43 283.96 484.06 285.23C484.05 285.26 484.04 285.3 484.03 285.34C484.01 285.41 483.96 285.71 483.96 285.8C483.96 287.25 485.86 288.43 488.2 288.43C490.54 288.43 492.44 287.25 492.44 285.8C492.42 285.71 492.4 285.62 492.39 285.54Z" fill="white"/>
<path d="M491.68 284.8C491.68 286 490.11 286.97 488.18 286.97C486.25 286.97 484.68 286 484.68 284.8C484.68 283.6 486.25 282.63 488.18 282.63C490.11 282.63 491.68 283.6 491.68 284.8Z" fill="#4478AB"/>
<path d="M485.88 281.91V284.8C485.88 285.59 486.91 286.23 488.18 286.23C489.45 286.23 490.48 285.59 490.48 284.8V281.91H485.88Z" fill="#F1F1F1"/>
<path d="M490.81 282.16C490.3 281.58 489.32 281.18 488.18 281.18C487.01 281.18 486.01 281.6 485.51 282.2L485.17 281.9V283.04C485.17 284.07 486.52 284.91 488.18 284.91C489.84 284.91 491.19 284.07 491.19 283.04V281.9L490.81 282.16Z" fill="#A7DAED"/>
<path d="M491.19 281.91C491.19 282.94 489.84 283.78 488.18 283.78C486.52 283.78 485.17 282.94 485.17 281.91C485.17 280.88 486.52 280.04 488.18 280.04C489.84 280.04 491.19 280.87 491.19 281.91Z" fill="#4478AB"/>
<path d="M490.48 281.91C490.48 282.7 489.45 283.34 488.18 283.34C486.91 283.34 485.88 282.7 485.88 281.91C485.88 281.12 486.91 280.48 488.18 280.48C489.45 280.48 490.48 281.12 490.48 281.91Z" fill="#A7DAED"/>
<path opacity="0.75" d="M494.34 291.83V301.27C494.34 302.72 496.24 303.9 498.58 303.9C500.92 303.9 502.82 302.72 502.82 301.27V291.83H494.34Z" fill="white"/>
<path d="M502.82 294.93V298.64C502.82 300.09 500.92 301.26 498.58 301.26C496.24 301.26 494.33 300.09 494.33 298.64V294.93C494.33 296.38 496.24 297.57 498.58 297.57C500.92 297.57 502.82 296.39 502.82 294.93Z" fill="#A7DAED"/>
<path opacity="0.75" d="M502.79 291.58C502.79 291.58 502.76 291.45 502.75 291.38C502.74 291.34 502.73 291.31 502.72 291.27C502.35 290 501.12 289.34 501.12 289.34V289.74C500.41 289.41 499.54 289.21 498.59 289.21C497.64 289.21 496.77 289.41 496.06 289.74V289.34C496.06 289.34 494.83 290 494.46 291.27C494.45 291.3 494.44 291.34 494.43 291.38C494.41 291.45 494.36 291.75 494.36 291.84C494.36 293.29 496.26 294.47 498.6 294.47C500.94 294.47 502.84 293.29 502.84 291.84C502.82 291.75 502.8 291.66 502.79 291.58Z" fill="white"/>
<path d="M502.08 290.84C502.08 292.04 500.51 293.01 498.58 293.01C496.65 293.01 495.08 292.04 495.08 290.84C495.08 289.64 496.65 288.67 498.58 288.67C500.51 288.66 502.08 289.64 502.08 290.84Z" fill="#4478AB"/>
<path d="M496.29 287.94V290.83C496.29 291.62 497.32 292.26 498.59 292.26C499.86 292.26 500.89 291.62 500.89 290.83V287.94H496.29Z" fill="#F1F1F1"/>
<path d="M501.21 288.19C500.7 287.61 499.72 287.21 498.58 287.21C497.41 287.21 496.41 287.63 495.91 288.23L495.57 287.93V289.07C495.57 290.1 496.92 290.94 498.58 290.94C500.24 290.94 501.59 290.1 501.59 289.07V287.93L501.21 288.19Z" fill="#A7DAED"/>
<path d="M501.59 287.94C501.59 288.97 500.24 289.81 498.58 289.81C496.92 289.81 495.57 288.97 495.57 287.94C495.57 286.91 496.92 286.07 498.58 286.07C500.24 286.07 501.59 286.91 501.59 287.94Z" fill="#4478AB"/>
<path d="M500.88 287.94C500.88 288.73 499.85 289.37 498.58 289.37C497.31 289.37 496.28 288.73 496.28 287.94C496.28 287.15 497.31 286.51 498.58 286.51C499.85 286.52 500.88 287.16 500.88 287.94Z" fill="#A7DAED"/>
<path opacity="0.75" d="M504.74 297.87V307.31C504.74 308.76 506.64 309.94 508.98 309.94C511.32 309.94 513.22 308.76 513.22 307.31V297.87H504.74Z" fill="white"/>
<path d="M513.22 300.97V304.68C513.22 306.13 511.32 307.3 508.98 307.3C506.64 307.3 504.73 306.13 504.73 304.68V300.97C504.73 302.42 506.64 303.61 508.98 303.61C511.32 303.61 513.22 302.42 513.22 300.97Z" fill="#A7DAED"/>
<path opacity="0.75" d="M513.19 297.61C513.19 297.61 513.16 297.48 513.15 297.41C513.14 297.37 513.13 297.34 513.12 297.3C512.75 296.03 511.52 295.37 511.52 295.37V295.77C510.81 295.44 509.94 295.24 508.99 295.24C508.04 295.24 507.17 295.44 506.46 295.77V295.37C506.46 295.37 505.23 296.03 504.86 297.3C504.85 297.33 504.84 297.37 504.83 297.41C504.81 297.48 504.76 297.78 504.76 297.87C504.76 299.32 506.66 300.5 509 300.5C511.34 300.5 513.24 299.32 513.24 297.87C513.22 297.78 513.2 297.7 513.19 297.61Z" fill="white"/>
<path d="M512.48 296.87C512.48 298.07 510.91 299.04 508.98 299.04C507.05 299.04 505.48 298.07 505.48 296.87C505.48 295.67 507.05 294.7 508.98 294.7C510.91 294.7 512.48 295.67 512.48 296.87Z" fill="#4478AB"/>
<path d="M506.69 293.98V296.87C506.69 297.66 507.72 298.3 508.99 298.3C510.26 298.3 511.29 297.66 511.29 296.87V293.98H506.69Z" fill="#F1F1F1"/>
<path d="M511.61 294.23C511.1 293.65 510.12 293.25 508.98 293.25C507.81 293.25 506.81 293.67 506.31 294.27L505.97 293.97V295.11C505.97 296.14 507.32 296.98 508.98 296.98C510.64 296.98 511.99 296.14 511.99 295.11V293.97L511.61 294.23Z" fill="#A7DAED"/>
<path d="M508.98 295.85C510.643 295.85 511.99 295.013 511.99 293.98C511.99 292.947 510.643 292.11 508.98 292.11C507.318 292.11 505.97 292.947 505.97 293.98C505.97 295.013 507.318 295.85 508.98 295.85Z" fill="#4478AB"/>
<path d="M508.98 295.41C510.25 295.41 511.28 294.77 511.28 293.98C511.28 293.19 510.25 292.55 508.98 292.55C507.71 292.55 506.68 293.19 506.68 293.98C506.68 294.77 507.71 295.41 508.98 295.41Z" fill="#A7DAED"/>
<path d="M531.43 298.85H519.63V315.8C519.62 316.69 520.19 317.59 521.34 318.27C523.64 319.63 527.37 319.63 529.68 318.27C530.84 317.59 531.42 316.7 531.43 315.8V298.85V298.85Z" fill="#4478AB"/>
<path d="M531.43 303.16V311.59C531.42 312.48 530.84 313.38 529.69 314.06C527.38 315.43 523.64 315.43 521.35 314.06C520.21 313.38 519.64 312.49 519.64 311.61V303.18C519.64 304.07 520.21 304.96 521.35 305.63C523.65 306.99 527.38 306.99 529.69 305.63C530.85 304.95 531.43 304.05 531.43 303.16Z" fill="#CCF4FF"/>
<path d="M529.72 296.08C527.42 294.72 523.69 294.72 521.38 296.08C519.07 297.44 519.05 299.65 521.35 301.02C523.65 302.38 527.38 302.38 529.69 301.02C532.01 299.66 532.01 297.45 529.72 296.08Z" fill="#EEFFFC"/>
<path d="M528.08 290.26C526.69 289.43 524.42 289.43 523.01 290.26C521.61 291.09 521.6 292.43 522.99 293.26C524.38 294.09 526.66 294.09 528.06 293.26C529.46 292.43 529.47 291.09 528.08 290.26Z" fill="#EEFFFC"/>
<path d="M521.99 291.44L519.76 297.84H531.31L529.12 291.44H521.99Z" fill="#EEFFFC"/>
<path d="M528.24 291.76V288.04H522.84V291.76C522.84 292.17 523.1 292.58 523.62 292.89C524.67 293.51 526.38 293.51 527.44 292.89C527.97 292.58 528.23 292.17 528.24 291.76Z" fill="#4478AB"/>
<path d="M527.45 286.91C526.4 286.28 524.69 286.28 523.63 286.91C522.57 287.53 522.56 288.55 523.62 289.17C524.67 289.79 526.38 289.79 527.44 289.17C528.5 288.55 528.5 287.53 527.45 286.91Z" fill="#A7DAED"/>
<path d="M474.37 300.58C474.25 300.58 474.15 300.55 474.06 300.49L473.7 300.3C473.49 300.18 473.38 299.91 473.38 299.54C473.38 298.68 474.01 297.59 474.75 297.16C474.95 297.05 475.14 296.99 475.31 296.99C475.41 296.99 475.51 297.01 475.59 297.06L475.98 297.27C476.19 297.39 476.3 297.66 476.3 298.03C476.3 298.89 475.67 299.98 474.93 300.41C474.73 300.52 474.54 300.58 474.37 300.58Z" fill="white"/>
<path d="M474.37 300.58C474 300.58 473.77 300.27 473.77 299.75C473.77 298.89 474.4 297.8 475.14 297.37C475.34 297.26 475.53 297.2 475.7 297.2C476.07 297.2 476.3 297.51 476.3 298.03C476.3 298.89 475.67 299.98 474.93 300.41C474.73 300.52 474.54 300.58 474.37 300.58Z" fill="#4478AB"/>
<path d="M480.22 301.21L479.33 302.02L474.78 299.34C474.71 299.3 474.66 299.21 474.66 299.08C474.66 298.82 474.84 298.51 475.06 298.38C475.17 298.32 475.27 298.31 475.35 298.35L480.22 301.21Z" fill="white"/>
<path d="M482.7 299.89L482.86 299.83L482.41 299.56L482.38 299.54C482.24 299.45 482.11 299.43 481.93 299.43C481.65 299.43 481.33 299.53 480.99 299.72C480.67 299.9 480.37 300.16 480.09 300.46C479.66 300.92 479.3 301.49 479.05 302.09C478.81 302.64 478.68 303.22 478.68 303.74C478.68 304.36 478.83 304.78 479.16 304.99L479.18 305L479.63 305.27L479.61 305.13C479.64 305.13 479.66 305.15 479.69 305.15C479.97 305.15 480.29 305.05 480.63 304.86C481.08 304.61 481.49 304.21 481.85 303.74C482.24 303.23 482.56 302.63 482.75 302.03C482.88 301.62 482.95 301.22 482.95 300.84C482.92 300.43 482.84 300.13 482.7 299.89Z" fill="white"/>
<path d="M483.17 302.29C483.3 301.88 483.37 301.48 483.37 301.1C483.37 300.22 482.99 299.7 482.36 299.7C482.08 299.7 481.76 299.8 481.42 299.99C481.1 300.17 480.8 300.43 480.52 300.73C480.09 301.19 479.73 301.76 479.48 302.36C479.24 302.91 479.11 303.49 479.11 304.01C479.11 304.89 479.49 305.41 480.12 305.41C480.4 305.41 480.72 305.31 481.06 305.12C481.51 304.87 481.92 304.47 482.28 304C482.66 303.49 482.98 302.89 483.17 302.29Z" fill="#4478AB"/>
<path opacity="0.75" d="M494.3 308.49C494.3 309.44 493.64 310.6 492.81 311.07C492.37 311.32 491.97 311.33 491.7 311.14C491.72 311.15 491.73 311.16 491.75 311.17L480.29 304.51C480.02 304.35 479.85 304.02 479.85 303.55C479.85 302.6 480.51 301.45 481.34 300.97C481.76 300.73 482.13 300.71 482.4 300.87L484.26 301.95L484.49 302.08L485.1 302.43L485.33 302.57L485.94 302.92L486.18 303.05L486.79 303.4L487.03 303.54L487.63 303.89L487.87 304.03L488.47 304.38L488.71 304.52L489.31 304.87L489.55 305.01L490.14 305.36L490.38 305.5L490.99 305.85L491.24 305.99L491.82 306.33C491.83 306.33 492.07 306.47 492.07 306.47L492.66 306.81L492.91 306.96L493.86 307.51C494.13 307.69 494.3 308.02 494.3 308.49Z" fill="white"/>
<path d="M492.8 307.64C493.63 307.16 494.3 307.55 494.3 308.49C494.3 309.44 493.64 310.6 492.81 311.07C491.98 311.55 491.31 311.16 491.31 310.21C491.3 309.27 491.97 308.11 492.8 307.64Z" fill="white"/>
<path d="M482.49 302.54C482.57 302.3 482.61 302.06 482.61 301.84C482.61 301.32 482.39 301.01 482.01 301.01C481.84 301.01 481.65 301.07 481.45 301.18C481.26 301.29 481.08 301.44 480.91 301.62C480.66 301.89 480.44 302.23 480.29 302.58C480.15 302.91 480.07 303.25 480.07 303.56C480.07 304.08 480.3 304.39 480.67 304.39C480.84 304.39 481.03 304.33 481.22 304.22C481.48 304.07 481.73 303.84 481.94 303.56C482.19 303.25 482.37 302.89 482.49 302.54Z" fill="white"/>
<path opacity="0.5" d="M486.46 307.75C486.09 307.75 485.86 307.44 485.86 306.92C485.86 306.06 486.49 304.97 487.23 304.54C487.43 304.43 487.62 304.37 487.79 304.37C488.16 304.37 488.39 304.68 488.39 305.2C488.39 306.06 487.76 307.15 487.02 307.58C486.81 307.69 486.62 307.75 486.46 307.75Z" fill="#29ABE2"/>
<path opacity="0.3" d="M492.14 311.05C491.77 311.05 491.54 310.74 491.54 310.22C491.54 309.36 492.17 308.27 492.91 307.84C493.11 307.73 493.3 307.67 493.47 307.67C493.84 307.67 494.07 307.98 494.07 308.5C494.07 309.36 493.44 310.45 492.7 310.88C492.49 310.99 492.3 311.05 492.14 311.05Z" fill="#29ABE2"/>
<path d="M486.72 305.03L483.26 303L482.69 302.66L482.48 302.54L480.91 301.62C480.66 301.89 480.44 302.23 480.29 302.58L481.94 303.55L482.14 303.67L482.36 303.8L486.13 306.01C486.12 306 486.11 306 486.1 305.99C486.17 306.05 486.29 306.06 486.42 305.98C486.64 305.85 486.83 305.54 486.83 305.28C486.84 305.16 486.8 305.07 486.72 305.03Z" fill="#CCCCCC"/>
<path opacity="0.5" d="M486.46 307.75C486.09 307.75 485.86 307.44 485.86 306.92C485.86 306.06 486.49 304.97 487.23 304.54C487.43 304.43 487.62 304.37 487.79 304.37C488.16 304.37 488.39 304.68 488.39 305.2C488.39 306.06 487.76 307.15 487.02 307.58C486.81 307.69 486.62 307.75 486.46 307.75Z" fill="#CCCCCC"/>
<path d="M486.46 307.75C486.34 307.75 486.24 307.72 486.15 307.66L485.08 307.06C484.87 306.94 484.76 306.67 484.76 306.3C484.76 305.44 485.39 304.35 486.13 303.92C486.33 303.81 486.52 303.75 486.69 303.75C486.79 303.75 486.89 303.77 486.97 303.82L488.07 304.44C488.28 304.56 488.39 304.83 488.39 305.2C488.39 306.06 487.76 307.15 487.02 307.58C486.82 307.69 486.63 307.75 486.46 307.75Z" fill="#2B325E"/>
<path opacity="0.3" d="M492.14 311.04C492.02 311.04 491.92 311.01 491.83 310.95L486.18 307.68C485.97 307.56 485.86 307.29 485.86 306.92C485.86 306.06 486.49 304.97 487.23 304.54C487.43 304.43 487.62 304.37 487.79 304.37C487.89 304.37 487.99 304.39 488.07 304.44L493.75 307.73C493.96 307.85 494.07 308.12 494.07 308.49C494.07 309.35 493.44 310.44 492.7 310.87C492.5 310.99 492.3 311.04 492.14 311.04Z" fill="#29ABE2"/>
<path d="M494.47 309.39L493.47 308.81C493.37 308.75 493.22 308.75 493.06 308.85C492.75 309.03 492.49 309.47 492.49 309.83C492.49 310 492.55 310.12 492.65 310.18L492.66 310.19L493.64 310.76L494.47 309.39Z" fill="#2B325E"/>
<path d="M494.06 309.42C494.37 309.24 494.63 309.38 494.63 309.75C494.63 310.11 494.38 310.55 494.06 310.73C493.75 310.91 493.49 310.77 493.49 310.4C493.49 310.05 493.74 309.61 494.06 309.42Z" fill="#2EC1FF"/>
<path d="M492.91 306.98C492.66 306.91 492.34 306.97 492.01 307.16C492 307.16 491.99 307.17 491.98 307.17C491.96 307.17 491.94 307.16 491.93 307.14C491.91 307.11 491.92 307.08 491.95 307.06C492.2 306.92 492.43 306.84 492.65 306.84L492.91 306.98Z" fill="#4D4D4D"/>
<path d="M492.07 306.49C491.88 306.44 491.65 306.46 491.41 306.55C491.38 306.56 491.35 306.55 491.33 306.52C491.32 306.49 491.33 306.46 491.36 306.44C491.52 306.38 491.67 306.34 491.81 306.34C491.82 306.35 492.07 306.49 492.07 306.49Z" fill="#4D4D4D"/>
<path d="M491.23 306C490.98 305.93 490.66 305.99 490.34 306.18C490.33 306.19 490.32 306.19 490.31 306.19C490.29 306.19 490.27 306.18 490.26 306.16C490.24 306.13 490.25 306.1 490.28 306.08C490.52 305.94 490.76 305.87 490.98 305.86L491.23 306Z" fill="#4D4D4D"/>
<path d="M490.38 305.51C490.19 305.46 489.97 305.49 489.74 305.58C489.71 305.59 489.68 305.58 489.66 305.55C489.65 305.52 489.66 305.49 489.69 305.47C489.85 305.41 490 305.37 490.14 305.37L490.38 305.51Z" fill="#4D4D4D"/>
<path d="M489.55 305.02C489.3 304.95 488.99 305.02 488.67 305.2C488.66 305.2 488.65 305.21 488.64 305.21C488.62 305.21 488.6 305.2 488.59 305.18C488.57 305.15 488.58 305.12 488.61 305.1C488.85 304.96 489.09 304.89 489.31 304.88L489.55 305.02Z" fill="#4D4D4D"/>
<path d="M488.7 304.54C488.51 304.49 488.29 304.51 488.05 304.61C488.02 304.62 487.99 304.61 487.97 304.58C487.96 304.55 487.97 304.52 488 304.5C488.16 304.44 488.31 304.4 488.45 304.4C488.46 304.39 488.7 304.54 488.7 304.54Z" fill="#4D4D4D"/>
<path d="M487.86 304.05C487.61 303.99 487.31 304.05 486.99 304.23C486.98 304.24 486.97 304.24 486.96 304.24C486.94 304.24 486.92 304.23 486.91 304.21C486.89 304.18 486.9 304.15 486.93 304.13C487.17 303.99 487.41 303.92 487.62 303.91C487.63 303.91 487.86 304.05 487.86 304.05Z" fill="#4D4D4D"/>
<path d="M487.02 303.56C486.83 303.51 486.61 303.54 486.38 303.63C486.35 303.64 486.32 303.63 486.3 303.6C486.29 303.57 486.3 303.54 486.33 303.52C486.49 303.46 486.64 303.42 486.78 303.42L487.02 303.56Z" fill="#4D4D4D"/>
<path d="M486.18 303.07C485.93 303.01 485.63 303.07 485.32 303.26C485.31 303.26 485.3 303.27 485.29 303.27C485.27 303.27 485.25 303.26 485.24 303.24C485.22 303.21 485.23 303.18 485.26 303.16C485.5 303.02 485.73 302.95 485.95 302.94C485.95 302.93 486.18 303.07 486.18 303.07Z" fill="#4D4D4D"/>
<path d="M485.34 302.58C485.15 302.54 484.93 302.56 484.7 302.66C484.67 302.67 484.64 302.66 484.62 302.63C484.61 302.6 484.62 302.57 484.65 302.55C484.81 302.49 484.96 302.45 485.1 302.45L485.34 302.58Z" fill="#4D4D4D"/>
<path d="M484.5 302.09C484.25 302.03 483.95 302.1 483.64 302.28C483.63 302.29 483.62 302.29 483.61 302.29C483.59 302.29 483.57 302.28 483.56 302.26C483.54 302.23 483.55 302.2 483.58 302.18C483.82 302.04 484.05 301.97 484.26 301.96L484.5 302.09Z" fill="#4D4D4D"/>
<path d="M495.13 311.12L493.84 310.58C493.78 310.55 493.75 310.47 493.75 310.36C493.75 310.11 493.93 309.79 494.15 309.67C494.21 309.64 494.26 309.62 494.31 309.62C494.34 309.62 494.37 309.63 494.39 309.64C494.78 309.94 495.41 310.4 495.5 310.52C495.4 310.78 495.33 310.87 495.13 311.12Z" fill="#2B325E"/>
<path d="M495.18 311.13C495.11 311.13 495.07 311.07 495.06 310.97C495.06 310.8 495.18 310.59 495.33 310.51C495.37 310.49 495.41 310.48 495.44 310.48C495.51 310.48 495.55 310.54 495.56 310.64C495.56 310.81 495.44 311.02 495.29 311.1C495.25 311.12 495.21 311.13 495.18 311.13Z" fill="#2EC1FF"/>
<path d="M495.39 310.71C495.38 310.7 495.35 310.7 495.33 310.72C495.28 310.75 495.25 310.81 495.25 310.86C495.25 310.89 495.26 310.9 495.27 310.91L499.89 313.56C500.5 313.79 500.88 313.92 501.13 314L495.39 310.71Z" fill="white"/>
<path d="M494.22 317.89C494.19 317.75 494.09 317.55 493.85 317.4L492.53 316.64C492.52 316.64 492.52 316.63 492.51 316.63C492.51 316.63 492.49 316.62 492.47 316.61C492.46 316.61 492.45 316.6 492.44 316.6C492.31 316.55 492.02 316.47 491.8 316.67C491.53 316.92 491.66 317.24 491.66 317.24C491.72 317.41 491.85 317.59 492.01 317.68L493.33 318.44C493.35 318.45 493.37 318.46 493.39 318.47C493.39 318.47 493.67 318.64 493.98 318.45C494.27 318.29 494.24 318.01 494.22 317.89Z" fill="#699FE0"/>
<path d="M493.29 317.08C493.28 317.08 493.28 317.08 493.27 317.07C493.26 317.07 493.25 317.06 493.24 317.06C493.11 317.01 492.81 316.93 492.59 317.13C492.32 317.38 492.45 317.72 492.45 317.72C492.49 317.85 492.58 317.98 492.68 318.07L491.79 317.56C491.63 317.47 491.5 317.29 491.44 317.12C491.44 317.12 491.31 316.79 491.58 316.55C491.79 316.35 492.09 316.43 492.21 316.48C492.22 316.48 492.23 316.49 492.24 316.49C492.26 316.5 492.28 316.51 492.28 316.51C492.29 316.51 492.29 316.52 492.3 316.52L493.29 317.08Z" fill="white"/>
<path d="M496.05 316.83C496.02 316.69 495.92 316.49 495.68 316.34L494.36 315.58C494.35 315.58 494.35 315.57 494.34 315.57C494.34 315.57 494.32 315.56 494.3 315.55C494.29 315.55 494.28 315.54 494.27 315.54C494.14 315.49 493.85 315.42 493.63 315.61C493.36 315.86 493.49 316.18 493.49 316.18C493.55 316.35 493.68 316.53 493.84 316.62L495.16 317.38C495.18 317.39 495.2 317.4 495.22 317.41C495.22 317.41 495.5 317.58 495.81 317.39C496.1 317.22 496.07 316.95 496.05 316.83Z" fill="#699FE0"/>
<path d="M495.12 316.02C495.11 316.02 495.11 316.02 495.1 316.01C495.09 316.01 495.08 316 495.07 316C494.94 315.95 494.64 315.87 494.42 316.07C494.15 316.32 494.28 316.66 494.28 316.66C494.32 316.79 494.41 316.92 494.51 317.01L493.62 316.5C493.46 316.41 493.33 316.23 493.27 316.06C493.27 316.06 493.14 315.73 493.41 315.49C493.62 315.29 493.92 315.37 494.04 315.42C494.05 315.42 494.06 315.43 494.07 315.43C494.09 315.44 494.11 315.45 494.11 315.45C494.12 315.45 494.12 315.46 494.13 315.46L495.12 316.02Z" fill="white"/>
<path d="M497.88 315.76C497.85 315.62 497.75 315.42 497.51 315.27L496.19 314.51C496.18 314.51 496.18 314.5 496.17 314.5C496.17 314.5 496.15 314.49 496.13 314.48C496.12 314.48 496.11 314.47 496.1 314.47C495.97 314.42 495.68 314.34 495.46 314.54C495.19 314.79 495.32 315.11 495.32 315.11C495.38 315.28 495.51 315.46 495.67 315.55L496.99 316.31C497.01 316.32 497.03 316.33 497.05 316.34C497.05 316.34 497.33 316.51 497.64 316.32C497.94 316.16 497.91 315.88 497.88 315.76Z" fill="#699FE0"/>
<path d="M496.95 314.95C496.94 314.95 496.94 314.95 496.93 314.94C496.92 314.94 496.91 314.93 496.9 314.93C496.77 314.88 496.47 314.8 496.25 315C495.98 315.25 496.11 315.59 496.11 315.59C496.15 315.72 496.24 315.85 496.34 315.94L495.45 315.43C495.29 315.34 495.16 315.16 495.1 314.99C495.1 314.99 494.97 314.66 495.24 314.42C495.45 314.22 495.75 314.3 495.87 314.35C495.88 314.35 495.89 314.36 495.9 314.36C495.92 314.37 495.94 314.38 495.94 314.38C495.95 314.38 495.95 314.39 495.96 314.39L496.95 314.95Z" fill="white"/>
<path d="M499.71 314.7C499.68 314.56 499.58 314.36 499.34 314.21L498.02 313.45C498.01 313.45 498.01 313.44 498 313.44C498 313.44 497.98 313.43 497.96 313.42C497.95 313.42 497.94 313.41 497.93 313.41C497.8 313.36 497.51 313.28 497.29 313.48C497.02 313.73 497.15 314.05 497.15 314.05C497.21 314.22 497.34 314.4 497.5 314.49L498.82 315.25C498.84 315.26 498.86 315.27 498.88 315.28C498.88 315.28 499.16 315.45 499.47 315.26C499.77 315.09 499.74 314.82 499.71 314.7Z" fill="#699FE0"/>
<path d="M498.78 313.89C498.77 313.89 498.77 313.89 498.76 313.88C498.75 313.88 498.74 313.87 498.73 313.87C498.6 313.82 498.3 313.74 498.08 313.94C497.81 314.19 497.94 314.53 497.94 314.53C497.98 314.66 498.07 314.79 498.17 314.88L497.28 314.37C497.12 314.28 496.99 314.1 496.93 313.93C496.93 313.93 496.8 313.6 497.07 313.36C497.28 313.16 497.58 313.24 497.7 313.29C497.71 313.29 497.72 313.3 497.73 313.3C497.75 313.31 497.77 313.32 497.77 313.32C497.78 313.32 497.78 313.33 497.79 313.33L498.78 313.89Z" fill="white"/>
</g>
<defs>
<linearGradient id="paint0_linear" x1="302.666" y1="242.161" x2="309.829" y2="231.013" gradientUnits="userSpaceOnUse">
<stop stop-color="#D6FFFF"/>
<stop offset="1" stop-color="#2AC2FF"/>
</linearGradient>
<linearGradient id="paint1_linear" x1="303.298" y1="242.566" x2="310.462" y2="231.418" gradientUnits="userSpaceOnUse">
<stop stop-color="#D6FFFF"/>
<stop offset="1" stop-color="#2AC2FF"/>
</linearGradient>
<linearGradient id="paint2_linear" x1="303.69" y1="242.819" x2="310.853" y2="231.671" gradientUnits="userSpaceOnUse">
<stop stop-color="#D6FFFF"/>
<stop offset="1" stop-color="#2AC2FF"/>
</linearGradient>
<linearGradient id="paint3_linear" x1="304.322" y1="243.224" x2="311.486" y2="232.077" gradientUnits="userSpaceOnUse">
<stop stop-color="#D6FFFF"/>
<stop offset="1" stop-color="#2AC2FF"/>
</linearGradient>
<linearGradient id="paint4_linear" x1="304.714" y1="243.477" x2="311.878" y2="232.329" gradientUnits="userSpaceOnUse">
<stop stop-color="#D6FFFF"/>
<stop offset="1" stop-color="#2AC2FF"/>
</linearGradient>
<linearGradient id="paint5_linear" x1="305.346" y1="243.883" x2="312.509" y2="232.736" gradientUnits="userSpaceOnUse">
<stop stop-color="#D6FFFF"/>
<stop offset="1" stop-color="#2AC2FF"/>
</linearGradient>
<linearGradient id="paint6_linear" x1="305.738" y1="244.135" x2="312.902" y2="232.987" gradientUnits="userSpaceOnUse">
<stop stop-color="#D6FFFF"/>
<stop offset="1" stop-color="#2AC2FF"/>
</linearGradient>
<linearGradient id="paint7_linear" x1="306.37" y1="244.541" x2="313.533" y2="233.393" gradientUnits="userSpaceOnUse">
<stop stop-color="#D6FFFF"/>
<stop offset="1" stop-color="#2AC2FF"/>
</linearGradient>
<linearGradient id="paint8_linear" x1="306.762" y1="244.793" x2="313.925" y2="233.645" gradientUnits="userSpaceOnUse">
<stop stop-color="#D6FFFF"/>
<stop offset="1" stop-color="#2AC2FF"/>
</linearGradient>
<linearGradient id="paint9_linear" x1="307.393" y1="245.199" x2="314.557" y2="234.052" gradientUnits="userSpaceOnUse">
<stop stop-color="#D6FFFF"/>
<stop offset="1" stop-color="#2AC2FF"/>
</linearGradient>
<linearGradient id="paint10_linear" x1="307.786" y1="245.451" x2="314.949" y2="234.304" gradientUnits="userSpaceOnUse">
<stop stop-color="#D6FFFF"/>
<stop offset="1" stop-color="#2AC2FF"/>
</linearGradient>
<linearGradient id="paint11_linear" x1="308.418" y1="245.857" x2="315.581" y2="234.709" gradientUnits="userSpaceOnUse">
<stop stop-color="#D6FFFF"/>
<stop offset="1" stop-color="#2AC2FF"/>
</linearGradient>
<linearGradient id="paint12_linear" x1="308.81" y1="246.109" x2="315.974" y2="234.961" gradientUnits="userSpaceOnUse">
<stop stop-color="#D6FFFF"/>
<stop offset="1" stop-color="#2AC2FF"/>
</linearGradient>
<linearGradient id="paint13_linear" x1="309.442" y1="246.515" x2="316.605" y2="235.367" gradientUnits="userSpaceOnUse">
<stop stop-color="#D6FFFF"/>
<stop offset="1" stop-color="#2AC2FF"/>
</linearGradient>
<linearGradient id="paint14_linear" x1="309.834" y1="246.767" x2="316.997" y2="235.619" gradientUnits="userSpaceOnUse">
<stop stop-color="#D6FFFF"/>
<stop offset="1" stop-color="#2AC2FF"/>
</linearGradient>
<clipPath id="clip0">
<rect width="547.35" height="577.29" fill="white"/>
</clipPath>
</defs>
</svg>
